<?xml version="1.0" encoding="UTF-8"?>
<svg xmlns="http://www.w3.org/2000/svg" xmlns:xlink="http://www.w3.org/1999/xlink" width="200px" height="27px" viewBox="0 0 203 27" version="1.1">
<g id="surface1">
<path style=" stroke:none;fill-rule:evenodd;fill:rgb(61.176471%,17.254902%,29.803922%);fill-opacity:1;" d="M 58.699219 10.359375 L 58.699219 20.71875 L 63.351562 20.71875 L 63.351562 0 L 58.699219 0 L 58.699219 10.359375 M 74.6875 3.015625 L 74.6875 6.027344 L 73.945312 6.03125 C 73.539062 6.035156 73.015625 6.058594 72.785156 6.085938 C 72.550781 6.113281 72.246094 6.128906 72.105469 6.125 C 71.96875 6.121094 71.664062 6.167969 71.429688 6.230469 C 71.199219 6.296875 70.886719 6.371094 70.738281 6.398438 C 70.589844 6.425781 70.320312 6.511719 70.144531 6.589844 C 69.96875 6.667969 69.773438 6.726562 69.710938 6.714844 C 69.644531 6.703125 69.621094 6.738281 69.648438 6.785156 C 69.683594 6.839844 69.652344 6.855469 69.574219 6.824219 C 69.5 6.796875 69.421875 6.832031 69.390625 6.910156 C 69.363281 6.984375 69.28125 7.046875 69.210938 7.046875 C 69.050781 7.046875 68.257812 7.476562 68.257812 7.566406 C 68.257812 7.601562 68.183594 7.652344 68.089844 7.683594 C 67.996094 7.714844 67.921875 7.792969 67.921875 7.863281 C 67.921875 7.933594 67.886719 7.96875 67.84375 7.945312 C 67.800781 7.917969 67.648438 8.039062 67.503906 8.214844 C 67.359375 8.390625 67.140625 8.632812 67.019531 8.757812 C 66.855469 8.921875 66.828125 8.992188 66.917969 9.023438 C 67 9.058594 66.992188 9.074219 66.890625 9.078125 C 66.730469 9.085938 66.496094 9.480469 66.101562 10.402344 C 66.042969 10.542969 65.949219 10.75 65.894531 10.871094 C 65.84375 10.988281 65.789062 11.179688 65.777344 11.296875 C 65.761719 11.414062 65.730469 11.546875 65.703125 11.59375 C 65.675781 11.636719 65.632812 11.847656 65.605469 12.058594 C 65.574219 12.265625 65.519531 12.554688 65.476562 12.699219 C 65.394531 12.988281 65.414062 15.972656 65.503906 16.515625 C 65.59375 17.0625 65.816406 17.941406 65.929688 18.171875 C 66.269531 18.875 66.53125 19.328125 66.644531 19.417969 C 66.71875 19.476562 66.75 19.523438 66.714844 19.527344 C 66.675781 19.527344 66.769531 19.660156 66.914062 19.824219 C 67.0625 19.984375 67.210938 20.101562 67.25 20.078125 C 67.285156 20.054688 67.339844 20.105469 67.367188 20.191406 C 67.40625 20.316406 67.875 20.628906 68.089844 20.671875 C 68.113281 20.675781 68.285156 20.757812 68.46875 20.847656 C 68.898438 21.058594 70.835938 21.097656 70.957031 20.898438 C 71.007812 20.816406 71.039062 20.8125 71.0625 20.882812 C 71.085938 20.953125 71.164062 20.945312 71.347656 20.851562 C 71.488281 20.777344 71.648438 20.71875 71.707031 20.71875 C 71.824219 20.71875 72.242188 20.46875 72.328125 20.351562 C 72.355469 20.3125 72.394531 20.289062 72.414062 20.304688 C 72.476562 20.351562 72.902344 19.925781 72.859375 19.855469 C 72.835938 19.816406 72.871094 19.78125 72.9375 19.78125 C 73.078125 19.78125 73.570312 19.234375 73.679688 18.953125 C 73.71875 18.851562 73.792969 18.765625 73.839844 18.765625 C 73.886719 18.765625 73.925781 18.695312 73.925781 18.609375 C 73.925781 18.523438 74.019531 18.34375 74.132812 18.210938 C 74.246094 18.078125 74.335938 17.949219 74.328125 17.921875 C 74.324219 17.894531 74.359375 17.777344 74.410156 17.660156 C 74.460938 17.542969 74.535156 17.371094 74.574219 17.277344 C 74.617188 17.179688 74.652344 17.851562 74.667969 18.914062 L 74.691406 20.71875 L 79.339844 20.71875 L 79.339844 0 L 74.6875 0 L 74.6875 3.015625 M 90.671875 0.816406 C 90.511719 0.835938 90.109375 0.898438 89.785156 0.949219 C 89.460938 1.007812 89.144531 1.042969 89.082031 1.03125 C 89.023438 1.019531 88.851562 1.046875 88.703125 1.089844 C 88.554688 1.136719 88.289062 1.199219 88.113281 1.226562 C 87.9375 1.257812 87.8125 1.316406 87.839844 1.359375 C 87.867188 1.402344 87.816406 1.421875 87.730469 1.402344 C 87.644531 1.386719 87.460938 1.421875 87.324219 1.480469 C 86.664062 1.769531 86.566406 1.8125 86.488281 1.832031 C 86.230469 1.890625 85.953125 2.042969 85.75 2.230469 C 85.625 2.347656 85.5 2.421875 85.472656 2.394531 C 85.449219 2.367188 85.316406 2.464844 85.183594 2.609375 C 85.050781 2.757812 84.921875 2.859375 84.898438 2.835938 C 84.777344 2.714844 83.078125 4.605469 83.140625 4.800781 C 83.152344 4.835938 83.117188 4.890625 83.0625 4.921875 C 83.007812 4.957031 82.957031 5.039062 82.949219 5.101562 C 82.9375 5.167969 82.867188 5.316406 82.789062 5.425781 C 82.710938 5.539062 82.660156 5.660156 82.683594 5.691406 C 82.703125 5.726562 82.664062 5.800781 82.59375 5.859375 C 82.527344 5.917969 82.46875 6.054688 82.46875 6.167969 C 82.46875 6.277344 82.4375 6.367188 82.402344 6.367188 C 82.34375 6.367188 82.167969 6.933594 82.09375 7.375 C 82.074219 7.484375 82.011719 7.691406 81.949219 7.835938 C 81.871094 8.03125 81.867188 8.105469 81.941406 8.128906 C 82.015625 8.15625 82.011719 8.210938 81.925781 8.347656 C 81.863281 8.449219 81.816406 8.636719 81.824219 8.765625 C 81.832031 8.894531 81.808594 9 81.765625 9 C 81.6875 9 81.75 12.957031 81.839844 13.605469 C 81.867188 13.828125 81.921875 14.007812 81.957031 14.007812 C 82.019531 14.007812 82.035156 14.085938 82.058594 14.515625 C 82.066406 14.65625 82.109375 14.742188 82.15625 14.714844 C 82.207031 14.683594 82.214844 14.707031 82.179688 14.765625 C 82.144531 14.820312 82.160156 14.917969 82.210938 14.980469 C 82.261719 15.042969 82.320312 15.179688 82.339844 15.277344 C 82.359375 15.378906 82.433594 15.574219 82.5 15.714844 C 82.570312 15.851562 82.59375 15.945312 82.554688 15.921875 C 82.515625 15.894531 82.59375 16.105469 82.730469 16.390625 C 82.886719 16.714844 83.015625 16.882812 83.074219 16.84375 C 83.132812 16.808594 83.148438 16.824219 83.109375 16.882812 C 83.046875 16.984375 83.300781 17.492188 83.417969 17.492188 C 83.453125 17.492188 83.484375 17.539062 83.484375 17.597656 C 83.488281 17.761719 84.71875 19.019531 84.941406 19.085938 C 84.976562 19.09375 85.125 19.207031 85.265625 19.335938 C 85.582031 19.621094 86.148438 19.953125 86.320312 19.953125 C 86.386719 19.953125 86.445312 19.992188 86.445312 20.042969 C 86.445312 20.09375 86.480469 20.109375 86.527344 20.082031 C 86.574219 20.050781 86.613281 20.058594 86.613281 20.101562 C 86.613281 20.480469 89.589844 21.007812 91.730469 21.007812 C 93.800781 21.003906 94.902344 20.902344 95.796875 20.628906 C 95.9375 20.582031 96.164062 20.546875 96.292969 20.546875 C 96.484375 20.546875 96.511719 20.523438 96.433594 20.429688 C 96.359375 20.339844 96.363281 20.300781 96.453125 20.265625 C 96.570312 20.222656 96.726562 19.691406 96.699219 19.445312 C 96.691406 19.375 96.722656 19.203125 96.769531 19.0625 C 96.816406 18.921875 96.871094 18.539062 96.894531 18.210938 C 96.917969 17.886719 96.957031 17.398438 96.980469 17.128906 C 97.035156 16.550781 97.003906 16.480469 96.722656 16.535156 C 96.605469 16.558594 96.53125 16.605469 96.554688 16.644531 C 96.574219 16.679688 96.515625 16.691406 96.421875 16.664062 C 96.328125 16.640625 96.015625 16.667969 95.726562 16.726562 C 95.433594 16.785156 95.054688 16.828125 94.878906 16.820312 C 94.703125 16.8125 94.519531 16.828125 94.472656 16.855469 C 94.253906 16.992188 91.234375 17.050781 90.578125 16.933594 C 90.375 16.894531 90.175781 16.871094 90.140625 16.882812 C 90.101562 16.890625 89.96875 16.847656 89.84375 16.785156 C 88.867188 16.289062 88.628906 16.136719 88.207031 15.714844 C 87.945312 15.453125 87.699219 15.222656 87.660156 15.199219 C 87.617188 15.175781 87.59375 15.128906 87.605469 15.09375 C 87.617188 15.0625 87.53125 14.855469 87.414062 14.636719 C 87.300781 14.417969 87.207031 14.210938 87.207031 14.175781 C 87.207031 14.144531 87.148438 13.976562 87.078125 13.808594 C 87.007812 13.640625 86.945312 13.472656 86.945312 13.4375 C 86.941406 13.402344 86.910156 13.335938 86.875 13.289062 C 86.84375 13.242188 86.824219 13.105469 86.835938 12.992188 C 86.847656 12.875 86.835938 12.722656 86.808594 12.652344 C 86.671875 12.269531 86.652344 10.292969 86.777344 9.507812 C 86.824219 9.210938 86.847656 8.949219 86.824219 8.929688 C 86.804688 8.910156 86.824219 8.828125 86.867188 8.746094 C 86.949219 8.59375 87.046875 8.203125 87.0625 7.964844 C 87.066406 7.886719 87.101562 7.84375 87.140625 7.863281 C 87.175781 7.886719 87.207031 7.851562 87.207031 7.78125 C 87.207031 7.59375 87.777344 6.613281 88.058594 6.320312 C 88.195312 6.175781 88.277344 6.03125 88.242188 5.996094 C 88.207031 5.957031 88.222656 5.941406 88.273438 5.957031 C 88.324219 5.972656 88.488281 5.882812 88.632812 5.753906 C 88.777344 5.625 88.9375 5.519531 88.988281 5.519531 C 89.039062 5.519531 89.191406 5.441406 89.328125 5.34375 C 89.464844 5.246094 89.679688 5.148438 89.808594 5.128906 C 89.933594 5.109375 90.230469 5.039062 90.460938 4.976562 C 90.964844 4.835938 93.175781 4.859375 94.101562 5.011719 C 94.425781 5.066406 94.863281 5.125 95.070312 5.140625 C 95.28125 5.15625 95.566406 5.203125 95.707031 5.242188 C 96.253906 5.390625 96.429688 5.335938 96.5625 4.96875 C 96.671875 4.65625 96.707031 4.46875 96.800781 3.695312 C 96.816406 3.554688 96.851562 3.34375 96.878906 3.226562 C 96.902344 3.109375 96.945312 2.644531 96.96875 2.195312 L 97.011719 1.371094 L 96.65625 1.304688 C 96.460938 1.269531 96.164062 1.238281 96.003906 1.234375 C 95.839844 1.234375 95.683594 1.203125 95.65625 1.167969 C 95.632812 1.132812 95.382812 1.085938 95.109375 1.066406 C 94.832031 1.046875 94.339844 0.992188 94.015625 0.945312 C 93.351562 0.84375 91.128906 0.761719 90.671875 0.816406 M 138.589844 0.816406 C 138.402344 0.835938 137.984375 0.890625 137.660156 0.941406 C 137.332031 0.992188 136.933594 1.046875 136.769531 1.066406 C 136.484375 1.101562 136.183594 1.15625 136.09375 1.191406 C 136.070312 1.203125 136.015625 1.203125 135.96875 1.191406 C 135.882812 1.175781 135.402344 1.304688 134.976562 1.464844 C 134.847656 1.511719 134.761719 1.578125 134.785156 1.613281 C 134.808594 1.652344 134.75 1.664062 134.65625 1.636719 C 134.554688 1.609375 134.472656 1.644531 134.4375 1.726562 C 134.410156 1.804688 134.335938 1.835938 134.257812 1.804688 C 134.179688 1.777344 134.078125 1.820312 134.011719 1.914062 C 133.945312 2 133.894531 2.042969 133.894531 2.007812 C 133.894531 1.972656 133.816406 1.988281 133.722656 2.039062 C 133.628906 2.089844 133.574219 2.167969 133.601562 2.210938 C 133.628906 2.253906 133.597656 2.269531 133.535156 2.246094 C 133.472656 2.222656 133.324219 2.289062 133.210938 2.394531 C 133.097656 2.503906 132.964844 2.601562 132.917969 2.621094 C 132.875 2.636719 132.847656 2.683594 132.859375 2.726562 C 132.871094 2.769531 132.84375 2.800781 132.796875 2.800781 C 132.671875 2.800781 132.117188 3.410156 132.167969 3.492188 C 132.191406 3.53125 132.132812 3.609375 132.039062 3.667969 C 131.941406 3.726562 131.867188 3.820312 131.867188 3.875 C 131.867188 3.925781 131.804688 4.019531 131.734375 4.078125 C 131.664062 4.136719 131.625 4.238281 131.648438 4.300781 C 131.671875 4.363281 131.652344 4.414062 131.605469 4.414062 C 131.554688 4.414062 131.539062 4.453125 131.570312 4.5 C 131.597656 4.546875 131.585938 4.585938 131.542969 4.585938 C 131.472656 4.585938 131.390625 4.828125 131.304688 5.308594 C 131.289062 5.398438 131.226562 5.648438 131.167969 5.859375 C 131.015625 6.398438 131.046875 8.097656 131.214844 8.546875 C 131.285156 8.742188 131.324219 8.917969 131.300781 8.945312 C 131.242188 9 131.441406 9.570312 131.632812 9.890625 C 131.714844 10.03125 131.804688 10.214844 131.835938 10.292969 C 131.863281 10.375 131.917969 10.445312 131.960938 10.445312 C 132 10.445312 132.035156 10.503906 132.035156 10.574219 C 132.035156 10.648438 132.074219 10.683594 132.117188 10.65625 C 132.164062 10.625 132.203125 10.648438 132.203125 10.707031 C 132.203125 10.832031 132.832031 11.460938 132.957031 11.460938 C 133.007812 11.460938 133.050781 11.492188 133.050781 11.53125 C 133.050781 11.589844 133.683594 11.996094 133.8125 12.019531 C 133.832031 12.023438 134.078125 12.128906 134.351562 12.253906 C 134.628906 12.378906 134.871094 12.464844 134.894531 12.441406 C 134.917969 12.417969 134.988281 12.4375 135.046875 12.488281 C 135.148438 12.574219 136.777344 12.992188 137.152344 13.027344 C 137.246094 13.039062 137.515625 13.09375 137.75 13.152344 C 137.988281 13.207031 138.214844 13.246094 138.257812 13.234375 C 138.398438 13.199219 139.875 13.65625 140.066406 13.792969 C 140.160156 13.863281 140.171875 13.855469 140.113281 13.753906 C 140.070312 13.683594 140.242188 13.804688 140.496094 14.019531 C 140.988281 14.4375 141.132812 14.761719 141.058594 15.28125 C 140.992188 15.777344 140.96875 15.824219 140.652344 16.148438 C 140.484375 16.324219 140.367188 16.492188 140.398438 16.523438 C 140.425781 16.558594 140.40625 16.558594 140.355469 16.53125 C 140.304688 16.5 140.09375 16.558594 139.890625 16.660156 C 139.6875 16.761719 139.429688 16.832031 139.320312 16.820312 C 139.210938 16.808594 139.140625 16.828125 139.164062 16.867188 C 139.1875 16.90625 139.105469 16.945312 138.984375 16.953125 C 138.328125 16.992188 135.417969 16.984375 135.164062 16.941406 C 135 16.914062 134.601562 16.871094 134.277344 16.851562 C 133.953125 16.828125 133.628906 16.792969 133.554688 16.769531 C 133.449219 16.734375 132.574219 16.601562 131.90625 16.515625 C 131.816406 16.503906 131.679688 16.472656 131.613281 16.445312 C 131.421875 16.371094 130.820312 16.21875 130.804688 16.242188 C 130.785156 16.277344 130.925781 17.875 130.964844 18.042969 C 130.988281 18.136719 131.007812 18.375 131.011719 18.578125 C 131.019531 18.832031 131.050781 18.925781 131.117188 18.882812 C 131.171875 18.847656 131.191406 18.859375 131.160156 18.910156 C 131.078125 19.046875 131.339844 20.152344 131.480469 20.257812 C 131.550781 20.308594 131.585938 20.375 131.558594 20.402344 C 131.492188 20.46875 132.054688 20.621094 132.769531 20.722656 C 133.101562 20.769531 133.464844 20.828125 133.570312 20.851562 C 134.371094 21.027344 139.121094 21.058594 139.859375 20.890625 C 140.089844 20.839844 140.433594 20.773438 140.621094 20.746094 C 140.804688 20.71875 140.976562 20.671875 141 20.644531 C 141.023438 20.613281 141.15625 20.578125 141.296875 20.5625 C 141.4375 20.550781 141.664062 20.484375 141.804688 20.421875 C 142.050781 20.304688 142.355469 20.1875 142.4375 20.171875 C 142.613281 20.140625 143.453125 19.667969 143.453125 19.601562 C 143.453125 19.554688 143.488281 19.539062 143.53125 19.566406 C 143.578125 19.59375 143.644531 19.566406 143.679688 19.503906 C 143.71875 19.441406 143.875 19.304688 144.027344 19.199219 C 144.175781 19.09375 144.277344 18.964844 144.246094 18.914062 C 144.214844 18.863281 144.226562 18.847656 144.273438 18.875 C 144.382812 18.941406 144.890625 18.390625 144.890625 18.210938 C 144.890625 18.136719 144.929688 18.097656 144.976562 18.128906 C 145.023438 18.15625 145.058594 18.125 145.058594 18.058594 C 145.058594 17.996094 145.136719 17.851562 145.230469 17.742188 C 145.328125 17.632812 145.425781 17.445312 145.457031 17.328125 C 145.484375 17.207031 145.539062 17.066406 145.582031 17.011719 C 146.066406 16.390625 146.066406 13.082031 145.582031 12.175781 C 145.535156 12.085938 145.453125 11.890625 145.394531 11.738281 C 145.339844 11.589844 145.261719 11.484375 145.21875 11.511719 C 145.179688 11.535156 145.144531 11.496094 145.144531 11.425781 C 145.144531 11.101562 143.480469 9.6875 143.257812 9.824219 C 143.210938 9.851562 143.195312 9.835938 143.226562 9.789062 C 143.277344 9.707031 142.949219 9.507812 142.765625 9.507812 C 142.71875 9.507812 142.621094 9.453125 142.554688 9.382812 C 142.484375 9.3125 142.335938 9.253906 142.226562 9.253906 C 142.117188 9.253906 142.003906 9.214844 141.972656 9.167969 C 141.945312 9.121094 141.828125 9.085938 141.71875 9.085938 C 141.609375 9.085938 141.496094 9.046875 141.464844 9 C 141.4375 8.953125 141.316406 8.914062 141.199219 8.914062 C 141.078125 8.914062 140.761719 8.859375 140.492188 8.789062 C 140.222656 8.71875 139.902344 8.652344 139.78125 8.640625 C 139.660156 8.632812 139.5625 8.59375 139.5625 8.558594 C 139.5625 8.523438 139.476562 8.496094 139.371094 8.503906 C 139.269531 8.507812 139.074219 8.46875 138.945312 8.417969 C 138.8125 8.363281 138.601562 8.320312 138.472656 8.320312 C 138.347656 8.320312 138.207031 8.285156 138.164062 8.242188 C 138.117188 8.195312 137.980469 8.144531 137.855469 8.121094 C 137.734375 8.097656 137.550781 8.035156 137.453125 7.984375 C 137.355469 7.929688 137.242188 7.910156 137.203125 7.933594 C 137.160156 7.957031 137.082031 7.921875 137.023438 7.851562 C 136.964844 7.78125 136.851562 7.726562 136.769531 7.726562 C 136.683594 7.726562 136.597656 7.679688 136.574219 7.621094 C 136.542969 7.546875 136.527344 7.550781 136.523438 7.636719 C 136.519531 7.703125 136.398438 7.570312 136.25 7.339844 C 135.863281 6.734375 135.980469 5.660156 136.449219 5.539062 C 136.53125 5.515625 136.601562 5.46875 136.601562 5.433594 C 136.601562 5.355469 137.21875 5.125 137.832031 4.976562 C 138.28125 4.863281 140.871094 4.859375 141.421875 4.96875 C 142.46875 5.171875 143.105469 5.28125 143.328125 5.292969 C 143.464844 5.300781 143.601562 5.335938 143.628906 5.375 C 143.65625 5.414062 143.835938 5.457031 144.027344 5.476562 C 144.375 5.507812 144.425781 5.464844 144.515625 5.074219 C 144.523438 5.039062 144.542969 4.992188 144.554688 4.96875 C 144.5625 4.945312 144.582031 4.894531 144.59375 4.859375 C 144.601562 4.824219 144.632812 4.738281 144.660156 4.671875 C 144.941406 3.925781 145.050781 1.574219 144.808594 1.445312 C 144.707031 1.390625 144.601562 1.367188 144.578125 1.390625 C 144.550781 1.417969 144.457031 1.398438 144.363281 1.347656 C 144.191406 1.253906 143.402344 1.109375 142.820312 1.0625 C 142.632812 1.046875 142.320312 1.011719 142.125 0.980469 C 141.929688 0.949219 141.644531 0.910156 141.488281 0.886719 C 141.070312 0.828125 138.972656 0.777344 138.589844 0.816406 M 0.0195312 1.3125 C 0.015625 1.402344 0.0351562 1.519531 0.0703125 1.566406 C 0.105469 1.617188 0.148438 1.789062 0.160156 1.953125 C 0.171875 2.117188 0.253906 2.410156 0.339844 2.605469 C 0.421875 2.800781 0.472656 2.976562 0.449219 3.003906 C 0.425781 3.027344 0.457031 3.191406 0.515625 3.371094 C 0.578125 3.546875 0.617188 3.742188 0.605469 3.800781 C 0.59375 3.859375 0.617188 3.90625 0.65625 3.90625 C 0.691406 3.90625 0.730469 3.972656 0.738281 4.054688 C 0.761719 4.359375 0.835938 4.726562 0.964844 5.175781 C 1.039062 5.433594 1.101562 5.707031 1.101562 5.792969 C 1.101562 5.875 1.128906 5.945312 1.164062 5.945312 C 1.199219 5.945312 1.230469 6.046875 1.234375 6.175781 C 1.242188 6.304688 1.3125 6.640625 1.390625 6.917969 C 1.472656 7.199219 1.597656 7.722656 1.671875 8.082031 C 1.75 8.464844 1.839844 8.714844 1.886719 8.6875 C 1.933594 8.65625 1.945312 8.675781 1.914062 8.730469 C 1.878906 8.78125 1.914062 9.046875 1.992188 9.316406 C 2.066406 9.585938 2.160156 9.992188 2.203125 10.21875 C 2.242188 10.445312 2.3125 10.671875 2.355469 10.726562 C 2.394531 10.78125 2.417969 10.914062 2.398438 11.023438 C 2.382812 11.128906 2.394531 11.199219 2.429688 11.179688 C 2.464844 11.15625 2.5 11.222656 2.507812 11.320312 C 2.511719 11.421875 2.539062 11.601562 2.566406 11.71875 C 2.597656 11.832031 2.640625 12.035156 2.667969 12.164062 C 2.699219 12.292969 2.757812 12.394531 2.804688 12.394531 C 2.847656 12.394531 2.867188 12.429688 2.839844 12.46875 C 2.789062 12.550781 3.015625 13.707031 3.121094 13.914062 C 3.199219 14.066406 3.335938 14.695312 3.3125 14.796875 C 3.304688 14.828125 3.335938 14.859375 3.378906 14.859375 C 3.425781 14.859375 3.441406 14.914062 3.414062 14.984375 C 3.386719 15.054688 3.394531 15.179688 3.429688 15.261719 C 3.519531 15.46875 3.566406 15.640625 3.578125 15.8125 C 3.582031 15.894531 3.609375 15.960938 3.636719 15.960938 C 3.664062 15.960938 3.691406 16.03125 3.695312 16.109375 C 3.710938 16.355469 3.960938 17.398438 4.027344 17.507812 C 4.0625 17.5625 4.097656 17.6875 4.109375 17.785156 C 4.148438 18.113281 4.203125 18.382812 4.289062 18.679688 C 4.339844 18.84375 4.425781 19.207031 4.484375 19.484375 C 4.539062 19.765625 4.617188 20.109375 4.652344 20.25 C 4.691406 20.390625 4.742188 20.605469 4.773438 20.734375 L 4.820312 20.960938 L 6.730469 20.96875 C 8.183594 20.976562 8.625 20.953125 8.578125 20.875 C 8.539062 20.8125 8.554688 20.796875 8.617188 20.835938 C 8.753906 20.925781 9.972656 20.714844 10.105469 20.582031 C 10.164062 20.519531 10.234375 20.488281 10.257812 20.511719 C 10.328125 20.585938 10.9375 20.203125 11.234375 19.902344 C 11.386719 19.742188 11.492188 19.613281 11.464844 19.613281 C 11.441406 19.613281 11.496094 19.535156 11.589844 19.441406 C 11.792969 19.238281 12.265625 18.234375 12.265625 18.003906 C 12.265625 17.914062 12.304688 17.816406 12.355469 17.785156 C 12.40625 17.753906 12.421875 17.667969 12.394531 17.589844 C 12.363281 17.515625 12.371094 17.484375 12.40625 17.519531 C 12.441406 17.554688 12.542969 17.289062 12.628906 16.921875 C 12.710938 16.558594 12.8125 16.125 12.851562 15.960938 C 12.890625 15.796875 13.003906 15.339844 13.105469 14.941406 C 13.207031 14.546875 13.320312 14.085938 13.363281 13.925781 C 13.402344 13.761719 13.476562 13.464844 13.53125 13.265625 C 13.582031 13.066406 13.597656 12.859375 13.566406 12.804688 C 13.535156 12.753906 13.542969 12.730469 13.589844 12.761719 C 13.632812 12.789062 13.71875 12.578125 13.777344 12.285156 C 13.835938 11.996094 13.914062 11.644531 13.957031 11.503906 C 13.996094 11.363281 14.074219 11.082031 14.125 10.878906 C 14.179688 10.675781 14.246094 10.449219 14.273438 10.378906 C 14.308594 10.28125 14.292969 10.265625 14.203125 10.320312 C 14.101562 10.382812 14.097656 10.371094 14.203125 10.242188 C 14.339844 10.070312 14.460938 10.1875 14.460938 10.503906 C 14.464844 10.605469 14.503906 10.710938 14.550781 10.742188 C 14.597656 10.769531 14.617188 10.824219 14.59375 10.863281 C 14.554688 10.925781 14.746094 11.785156 14.859375 12.058594 C 14.890625 12.125 14.90625 12.230469 14.898438 12.289062 C 14.886719 12.34375 14.960938 12.550781 15.058594 12.742188 C 15.15625 12.933594 15.195312 13.066406 15.148438 13.035156 C 15.03125 12.964844 15.03125 13.121094 15.148438 13.34375 C 15.199219 13.4375 15.253906 13.617188 15.273438 13.742188 C 15.3125 13.988281 15.40625 14.359375 15.578125 14.941406 C 15.636719 15.152344 15.679688 15.367188 15.667969 15.421875 C 15.65625 15.472656 15.703125 15.625 15.773438 15.757812 C 15.84375 15.894531 15.902344 16.089844 15.902344 16.191406 C 15.902344 16.46875 16.144531 17.359375 16.230469 17.386719 C 16.269531 17.402344 16.289062 17.523438 16.273438 17.660156 C 16.257812 17.796875 16.316406 18.066406 16.402344 18.261719 C 16.492188 18.460938 16.542969 18.667969 16.523438 18.726562 C 16.5 18.789062 16.523438 18.914062 16.574219 19.011719 C 16.628906 19.113281 16.683594 19.316406 16.699219 19.464844 C 16.746094 19.929688 16.847656 20.292969 16.917969 20.25 C 16.957031 20.226562 16.96875 20.277344 16.945312 20.359375 C 16.925781 20.441406 16.945312 20.613281 16.996094 20.742188 L 17.082031 20.972656 L 18.964844 20.96875 C 20.003906 20.964844 21.019531 20.925781 21.230469 20.882812 C 21.441406 20.835938 21.785156 20.769531 22 20.730469 C 22.648438 20.617188 23.769531 19.890625 23.769531 19.589844 C 23.769531 19.550781 23.855469 19.394531 23.964844 19.246094 C 24.128906 19.019531 24.613281 17.925781 24.613281 17.78125 C 24.613281 17.753906 24.570312 17.761719 24.519531 17.792969 C 24.46875 17.824219 24.496094 17.742188 24.582031 17.609375 C 24.671875 17.480469 24.742188 17.3125 24.746094 17.238281 C 24.746094 17.167969 24.792969 16.976562 24.847656 16.8125 C 24.902344 16.648438 24.960938 16.335938 24.972656 16.121094 C 24.984375 15.902344 25.019531 15.738281 25.046875 15.757812 C 25.078125 15.777344 25.121094 15.714844 25.144531 15.621094 C 25.171875 15.527344 25.148438 15.453125 25.09375 15.453125 C 25.023438 15.449219 25.019531 15.433594 25.085938 15.386719 C 25.136719 15.351562 25.1875 15.269531 25.191406 15.199219 C 25.210938 15 25.261719 14.742188 25.3125 14.605469 C 25.335938 14.535156 25.402344 14.246094 25.457031 13.96875 C 25.511719 13.6875 25.613281 13.234375 25.683594 12.960938 C 25.753906 12.6875 25.792969 12.445312 25.765625 12.421875 C 25.742188 12.398438 25.765625 12.277344 25.8125 12.152344 C 25.859375 12.03125 25.917969 11.796875 25.9375 11.632812 C 25.960938 11.46875 26.011719 11.238281 26.054688 11.121094 C 26.097656 11.003906 26.132812 10.835938 26.136719 10.742188 C 26.140625 10.453125 26.191406 10.15625 26.28125 9.933594 C 26.421875 9.585938 26.566406 8.910156 26.515625 8.824219 C 26.488281 8.785156 26.511719 8.664062 26.566406 8.566406 C 26.617188 8.464844 26.675781 8.261719 26.6875 8.113281 C 26.699219 7.96875 26.757812 7.675781 26.816406 7.46875 C 26.980469 6.859375 27.152344 6 27.113281 5.964844 C 27.09375 5.945312 27.132812 5.78125 27.195312 5.601562 C 27.257812 5.417969 27.308594 5.203125 27.308594 5.121094 C 27.308594 5.035156 27.351562 4.8125 27.40625 4.628906 C 27.460938 4.441406 27.519531 4.191406 27.539062 4.074219 C 27.652344 3.414062 27.933594 2.109375 28.042969 1.75 C 28.109375 1.523438 28.167969 1.296875 28.167969 1.242188 C 28.167969 1.097656 23.292969 1.152344 23.277344 1.296875 C 23.269531 1.355469 23.230469 1.578125 23.191406 1.792969 C 23.152344 2.011719 23.125 2.265625 23.132812 2.363281 C 23.140625 2.460938 23.117188 2.519531 23.078125 2.496094 C 23.039062 2.472656 23.007812 2.570312 23.007812 2.710938 C 23.007812 2.960938 22.949219 3.269531 22.742188 4.140625 C 22.6875 4.359375 22.636719 4.644531 22.625 4.769531 C 22.609375 4.894531 22.558594 5.121094 22.507812 5.277344 C 22.457031 5.433594 22.40625 5.757812 22.394531 6 C 22.382812 6.238281 22.34375 6.417969 22.308594 6.398438 C 22.273438 6.375 22.246094 6.492188 22.246094 6.65625 C 22.246094 6.816406 22.203125 7.058594 22.152344 7.191406 C 22.050781 7.460938 21.910156 8.1875 21.859375 8.726562 C 21.84375 8.925781 21.792969 9.152344 21.75 9.234375 C 21.707031 9.316406 21.652344 9.5625 21.625 9.785156 C 21.597656 10.007812 21.558594 10.222656 21.53125 10.261719 C 21.507812 10.304688 21.464844 10.542969 21.433594 10.792969 C 21.402344 11.042969 21.347656 11.316406 21.304688 11.394531 C 21.203125 11.585938 21.210938 11.65625 21.324219 11.585938 C 21.386719 11.542969 21.386719 11.582031 21.320312 11.707031 C 21.214844 11.910156 20.925781 13.1875 20.859375 13.773438 C 20.835938 13.980469 20.773438 14.253906 20.726562 14.382812 C 20.679688 14.511719 20.636719 14.738281 20.632812 14.886719 C 20.625 15.253906 20.445312 15.714844 20.34375 15.640625 C 20.25 15.574219 20.214844 15.460938 20.175781 15.074219 C 20.136719 14.6875 20.023438 14.238281 19.699219 13.160156 C 19.636719 12.953125 19.59375 12.714844 19.609375 12.632812 C 19.621094 12.550781 19.601562 12.480469 19.566406 12.480469 C 19.527344 12.480469 19.484375 12.320312 19.472656 12.121094 C 19.457031 11.925781 19.390625 11.652344 19.324219 11.515625 C 19.257812 11.378906 19.199219 11.195312 19.199219 11.109375 C 19.199219 10.90625 19.007812 10.15625 18.941406 10.105469 C 18.910156 10.082031 18.886719 10.003906 18.882812 9.933594 C 18.871094 9.613281 18.777344 9.164062 18.664062 8.890625 C 18.59375 8.722656 18.558594 8.566406 18.585938 8.542969 C 18.609375 8.515625 18.578125 8.371094 18.515625 8.21875 C 18.453125 8.0625 18.410156 7.871094 18.425781 7.789062 C 18.4375 7.707031 18.417969 7.640625 18.378906 7.640625 C 18.335938 7.640625 18.296875 7.503906 18.285156 7.332031 C 18.273438 7.164062 18.207031 6.890625 18.140625 6.730469 C 18.070312 6.566406 18.015625 6.328125 18.015625 6.203125 C 18.015625 6.074219 17.988281 5.945312 17.957031 5.910156 C 17.925781 5.878906 17.886719 5.75 17.871094 5.621094 C 17.84375 5.371094 17.765625 5.046875 17.546875 4.332031 C 17.46875 4.074219 17.390625 3.785156 17.375 3.695312 C 17.289062 3.21875 17.164062 2.636719 17.085938 2.335938 C 17.035156 2.148438 16.984375 1.949219 16.972656 1.890625 C 16.960938 1.835938 16.921875 1.761719 16.890625 1.730469 C 16.859375 1.695312 16.832031 1.550781 16.832031 1.40625 L 16.832031 1.144531 L 14.398438 1.1875 L 11.96875 1.230469 L 11.941406 1.484375 C 11.929688 1.625 11.859375 1.867188 11.789062 2.023438 C 11.71875 2.175781 11.679688 2.359375 11.707031 2.425781 C 11.730469 2.492188 11.710938 2.652344 11.660156 2.78125 C 11.550781 3.070312 11.355469 3.820312 11.351562 3.992188 C 11.34375 4.171875 11.074219 5.195312 10.984375 5.367188 C 10.945312 5.449219 10.910156 5.648438 10.910156 5.808594 C 10.910156 5.972656 10.871094 6.128906 10.820312 6.160156 C 10.773438 6.1875 10.746094 6.277344 10.765625 6.355469 C 10.78125 6.433594 10.726562 6.683594 10.636719 6.910156 C 10.550781 7.140625 10.5 7.375 10.519531 7.433594 C 10.542969 7.488281 10.503906 7.640625 10.4375 7.773438 C 10.367188 7.90625 10.320312 8.070312 10.328125 8.144531 C 10.339844 8.21875 10.324219 8.335938 10.292969 8.40625 C 10.234375 8.5625 9.988281 9.511719 9.890625 9.976562 C 9.851562 10.164062 9.761719 10.527344 9.695312 10.78125 C 9.601562 11.132812 9.597656 11.265625 9.671875 11.3125 C 9.742188 11.355469 9.734375 11.375 9.648438 11.375 C 9.582031 11.375 9.550781 11.398438 9.578125 11.425781 C 9.605469 11.453125 9.574219 11.609375 9.507812 11.769531 C 9.4375 11.933594 9.40625 12.101562 9.433594 12.144531 C 9.460938 12.191406 9.449219 12.226562 9.410156 12.226562 C 9.339844 12.226562 9.152344 12.976562 9.113281 13.414062 C 9.101562 13.53125 9.0625 13.648438 9.027344 13.675781 C 8.992188 13.703125 8.945312 13.851562 8.925781 14.007812 C 8.90625 14.164062 8.851562 14.390625 8.808594 14.511719 C 8.761719 14.632812 8.679688 14.96875 8.617188 15.261719 C 8.492188 15.867188 8.402344 15.933594 8.332031 15.472656 C 8.304688 15.296875 8.238281 15.003906 8.1875 14.816406 C 8.132812 14.628906 8.097656 14.414062 8.109375 14.335938 C 8.121094 14.257812 8.089844 14.167969 8.039062 14.140625 C 7.992188 14.109375 7.949219 13.957031 7.949219 13.796875 C 7.949219 13.640625 7.910156 13.402344 7.859375 13.273438 C 7.804688 13.140625 7.746094 12.917969 7.726562 12.777344 C 7.703125 12.636719 7.613281 12.222656 7.523438 11.855469 C 7.433594 11.484375 7.359375 11.109375 7.359375 11.019531 C 7.359375 10.917969 7.320312 10.878906 7.261719 10.917969 C 7.203125 10.953125 7.1875 10.941406 7.21875 10.886719 C 7.25 10.839844 7.214844 10.554688 7.144531 10.257812 C 7.070312 9.964844 6.992188 9.605469 6.96875 9.46875 C 6.945312 9.328125 6.886719 9.085938 6.839844 8.933594 C 6.789062 8.777344 6.738281 8.566406 6.726562 8.464844 C 6.714844 8.363281 6.660156 8.171875 6.609375 8.039062 C 6.554688 7.90625 6.511719 7.691406 6.511719 7.554688 C 6.511719 7.421875 6.476562 7.289062 6.429688 7.257812 C 6.382812 7.230469 6.34375 7.085938 6.339844 6.9375 C 6.335938 6.539062 6.136719 5.753906 6.0625 5.832031 C 6.027344 5.867188 6.019531 5.832031 6.050781 5.757812 C 6.078125 5.679688 6.0625 5.542969 6.015625 5.457031 C 5.96875 5.367188 5.910156 5.113281 5.882812 4.890625 C 5.855469 4.667969 5.796875 4.417969 5.753906 4.332031 C 5.710938 4.25 5.6875 4.167969 5.707031 4.148438 C 5.726562 4.128906 5.648438 3.75 5.53125 3.308594 C 5.417969 2.867188 5.308594 2.429688 5.289062 2.335938 C 5.269531 2.242188 5.234375 2.050781 5.207031 1.910156 C 5.179688 1.769531 5.132812 1.558594 5.101562 1.441406 C 5.070312 1.328125 5.050781 1.210938 5.054688 1.1875 C 5.058594 1.164062 3.929688 1.144531 2.546875 1.144531 C 0.113281 1.144531 0.03125 1.152344 0.0195312 1.3125 M 35.023438 6.121094 C 34.726562 6.160156 34.421875 6.21875 34.347656 6.25 C 34.273438 6.28125 34.117188 6.324219 34.003906 6.34375 C 33.429688 6.4375 32.460938 6.863281 32.539062 6.988281 C 32.566406 7.035156 32.550781 7.046875 32.5 7.015625 C 32.394531 6.953125 31.972656 7.125 31.972656 7.230469 C 31.972656 7.269531 31.914062 7.300781 31.84375 7.300781 C 31.777344 7.300781 31.71875 7.335938 31.71875 7.375 C 31.71875 7.414062 31.585938 7.515625 31.429688 7.601562 C 31.269531 7.6875 31.15625 7.789062 31.179688 7.828125 C 31.203125 7.867188 31.179688 7.894531 31.132812 7.894531 C 31 7.894531 30.707031 8.171875 30.753906 8.25 C 30.777344 8.289062 30.738281 8.320312 30.667969 8.320312 C 30.59375 8.320312 30.535156 8.355469 30.535156 8.394531 C 30.535156 8.433594 30.417969 8.613281 30.277344 8.792969 C 30.136719 8.972656 29.960938 9.253906 29.890625 9.421875 C 29.816406 9.585938 29.703125 9.828125 29.632812 9.957031 C 29.566406 10.082031 29.535156 10.1875 29.566406 10.1875 C 29.597656 10.1875 29.578125 10.246094 29.519531 10.316406 C 29.464844 10.382812 29.4375 10.5 29.46875 10.574219 C 29.496094 10.648438 29.484375 10.6875 29.441406 10.660156 C 29.375 10.617188 29.324219 10.820312 29.226562 11.503906 C 29.207031 11.644531 29.152344 12.007812 29.101562 12.3125 C 28.992188 13 28.988281 14.089844 29.09375 14.695312 C 29.136719 14.949219 29.195312 15.332031 29.214844 15.542969 C 29.238281 15.757812 29.292969 16.027344 29.335938 16.140625 C 29.378906 16.253906 29.414062 16.363281 29.414062 16.386719 C 29.421875 16.554688 29.625 17.152344 29.691406 17.195312 C 29.738281 17.222656 29.773438 17.320312 29.773438 17.410156 C 29.773438 17.5 29.808594 17.574219 29.851562 17.574219 C 29.894531 17.574219 29.957031 17.660156 29.992188 17.765625 C 30.078125 18.035156 30.542969 18.6875 30.820312 18.925781 C 30.910156 19 31.082031 19.160156 31.203125 19.277344 C 31.652344 19.722656 32.515625 20.246094 32.65625 20.160156 C 32.699219 20.132812 32.726562 20.152344 32.714844 20.207031 C 32.679688 20.351562 34.175781 20.84375 34.976562 20.953125 C 35.953125 21.089844 38.566406 21.003906 39.175781 20.816406 C 40.542969 20.398438 41.46875 19.996094 41.636719 19.75 C 41.667969 19.695312 41.699219 19.691406 41.699219 19.738281 C 41.699219 19.785156 41.796875 19.71875 41.914062 19.589844 C 42.03125 19.464844 42.167969 19.359375 42.214844 19.359375 C 42.261719 19.359375 42.28125 19.324219 42.253906 19.28125 C 42.230469 19.242188 42.285156 19.1875 42.375 19.164062 C 42.46875 19.140625 42.574219 19.042969 42.609375 18.945312 C 42.644531 18.851562 42.710938 18.761719 42.757812 18.75 C 42.804688 18.734375 42.832031 18.691406 42.820312 18.65625 C 42.808594 18.621094 42.859375 18.59375 42.929688 18.59375 C 43.003906 18.59375 43.042969 18.558594 43.015625 18.519531 C 42.992188 18.476562 43.027344 18.417969 43.101562 18.390625 C 43.171875 18.363281 43.210938 18.300781 43.179688 18.253906 C 43.152344 18.207031 43.164062 18.171875 43.207031 18.171875 C 43.253906 18.171875 43.367188 18.019531 43.460938 17.835938 C 43.558594 17.652344 43.671875 17.433594 43.71875 17.347656 C 44.558594 15.78125 44.644531 11.925781 43.882812 10.105469 C 43.746094 9.777344 43.375 9.070312 43.304688 9 C 43.28125 8.976562 43.210938 8.851562 43.144531 8.726562 C 42.988281 8.417969 42.132812 7.554688 41.984375 7.554688 C 41.921875 7.554688 41.867188 7.519531 41.867188 7.476562 C 41.867188 7.359375 41.128906 6.941406 41.03125 7 C 40.984375 7.027344 40.90625 6.976562 40.855469 6.878906 C 40.804688 6.785156 40.695312 6.707031 40.613281 6.707031 C 40.53125 6.707031 40.425781 6.667969 40.378906 6.621094 C 40.328125 6.570312 40.171875 6.523438 40.03125 6.515625 C 39.886719 6.503906 39.789062 6.464844 39.808594 6.429688 C 39.832031 6.394531 39.75 6.367188 39.625 6.367188 C 39.503906 6.367188 39.328125 6.328125 39.234375 6.277344 C 38.878906 6.085938 36.105469 5.984375 35.023438 6.121094 M 55.898438 6.121094 C 55.84375 6.15625 55.753906 6.164062 55.699219 6.144531 C 55.566406 6.09375 54.472656 6.605469 54.472656 6.714844 C 54.472656 6.765625 54.441406 6.78125 54.402344 6.757812 C 54.363281 6.734375 54.234375 6.808594 54.109375 6.925781 C 53.988281 7.039062 53.859375 7.132812 53.824219 7.132812 C 53.519531 7.132812 52.140625 8.914062 51.542969 10.078125 L 51.089844 10.964844 L 51.085938 10.554688 C 51.078125 9.742188 50.867188 7.257812 50.796875 7.144531 C 50.773438 7.101562 50.746094 6.894531 50.738281 6.679688 L 50.722656 6.292969 L 46.089844 6.277344 L 46.132812 6.769531 C 46.160156 7.039062 46.199219 7.621094 46.226562 8.0625 C 46.25 8.5 46.292969 8.945312 46.320312 9.050781 C 46.382812 9.308594 46.40625 11.027344 46.421875 16.28125 L 46.4375 20.71875 L 51.089844 20.71875 L 51.097656 19.847656 C 51.132812 16.730469 51.402344 13.96875 51.691406 13.789062 C 51.730469 13.765625 51.765625 13.632812 51.765625 13.496094 C 51.765625 13.359375 51.804688 13.246094 51.851562 13.246094 C 51.894531 13.246094 51.933594 13.183594 51.933594 13.105469 C 51.933594 13.027344 52.03125 12.835938 52.148438 12.679688 C 52.269531 12.523438 52.335938 12.394531 52.296875 12.394531 C 52.261719 12.390625 52.296875 12.351562 52.378906 12.304688 C 52.460938 12.253906 52.515625 12.191406 52.5 12.15625 C 52.480469 12.125 52.539062 12.03125 52.625 11.949219 C 52.710938 11.867188 52.78125 11.832031 52.78125 11.867188 C 52.78125 11.898438 52.867188 11.828125 52.96875 11.707031 C 53.074219 11.585938 53.246094 11.460938 53.351562 11.425781 C 53.460938 11.390625 53.519531 11.324219 53.488281 11.273438 C 53.449219 11.214844 53.476562 11.199219 53.558594 11.230469 C 53.632812 11.257812 53.765625 11.226562 53.859375 11.164062 C 53.949219 11.097656 54.113281 11.027344 54.226562 11.007812 C 54.339844 10.988281 54.523438 10.949219 54.640625 10.921875 C 54.925781 10.855469 55.292969 10.800781 56.277344 10.683594 L 57.109375 10.578125 L 57.066406 9.132812 C 57.042969 8.335938 57 7.550781 56.964844 7.386719 C 56.933594 7.222656 56.898438 6.945312 56.886719 6.769531 C 56.875 6.597656 56.859375 6.355469 56.855469 6.238281 C 56.839844 6.015625 56.191406 5.9375 55.898438 6.121094 M 124 6.101562 C 123.789062 6.136719 123.542969 6.207031 123.449219 6.257812 C 123.355469 6.3125 123.15625 6.398438 123.007812 6.457031 C 122.855469 6.511719 122.753906 6.589844 122.777344 6.632812 C 122.804688 6.671875 122.75 6.707031 122.660156 6.707031 C 122.472656 6.707031 122.28125 6.902344 122.371094 7.003906 C 122.40625 7.042969 122.386719 7.046875 122.324219 7.011719 C 122.132812 6.898438 120.582031 8.796875 120.574219 9.160156 C 120.570312 9.1875 120.539062 9.261719 120.503906 9.320312 C 120.46875 9.375 120.464844 9.46875 120.496094 9.523438 C 120.53125 9.582031 120.519531 9.597656 120.46875 9.5625 C 120.414062 9.53125 120.351562 9.617188 120.316406 9.777344 C 120.222656 10.207031 120.097656 9.867188 120.101562 9.1875 C 120.101562 8.875 120.0625 8.378906 120.011719 8.089844 C 119.960938 7.800781 119.914062 7.359375 119.902344 7.113281 C 119.890625 6.867188 119.875 6.578125 119.867188 6.472656 L 119.855469 6.28125 L 115.203125 6.28125 L 115.238281 6.558594 C 115.28125 6.9375 115.359375 7.863281 115.425781 8.828125 C 115.457031 9.273438 115.492188 9.730469 115.503906 9.847656 C 115.515625 9.964844 115.53125 13.890625 115.535156 18.574219 L 115.539062 27.085938 L 120.191406 27.085938 L 120.191406 21.054688 L 120.976562 21.050781 C 121.40625 21.046875 121.890625 21.027344 122.054688 21.007812 C 122.214844 20.984375 122.480469 20.96875 122.640625 20.96875 C 122.800781 20.96875 123.164062 20.90625 123.445312 20.832031 C 123.726562 20.757812 124.015625 20.6875 124.082031 20.675781 C 124.453125 20.621094 124.761719 20.515625 124.761719 20.445312 C 124.761719 20.402344 124.789062 20.386719 124.824219 20.40625 C 124.859375 20.429688 125.023438 20.386719 125.183594 20.3125 C 125.347656 20.242188 125.5 20.171875 125.523438 20.164062 C 125.917969 20.023438 126.195312 19.84375 126.144531 19.765625 C 126.105469 19.703125 126.132812 19.6875 126.222656 19.722656 C 126.308594 19.753906 126.394531 19.71875 126.445312 19.632812 C 126.492188 19.550781 126.53125 19.515625 126.535156 19.554688 C 126.539062 19.699219 127.890625 18.429688 127.890625 18.277344 C 127.890625 18.21875 127.921875 18.171875 127.960938 18.171875 C 128 18.171875 128.105469 18.035156 128.191406 17.871094 C 128.28125 17.710938 128.386719 17.574219 128.425781 17.574219 C 128.464844 17.574219 128.480469 17.519531 128.453125 17.457031 C 128.429688 17.390625 128.464844 17.3125 128.535156 17.285156 C 128.609375 17.257812 128.648438 17.1875 128.628906 17.128906 C 128.609375 17.074219 128.644531 16.972656 128.707031 16.914062 C 128.769531 16.851562 128.820312 16.726562 128.820312 16.640625 C 128.820312 16.554688 128.859375 16.457031 128.90625 16.429688 C 128.953125 16.398438 128.96875 16.339844 128.945312 16.296875 C 128.917969 16.253906 128.9375 16.21875 128.992188 16.21875 C 129.042969 16.21875 129.070312 16.167969 129.050781 16.109375 C 129.03125 16.050781 129.058594 15.910156 129.113281 15.792969 C 129.167969 15.675781 129.207031 15.523438 129.199219 15.453125 C 129.195312 15.382812 129.222656 15.257812 129.261719 15.175781 C 129.449219 14.789062 129.554688 11.902344 129.421875 10.867188 C 129.273438 9.753906 129.230469 9.507812 129.171875 9.507812 C 129.140625 9.507812 129.109375 9.390625 129.097656 9.242188 C 129.085938 9.097656 129.027344 8.914062 128.964844 8.839844 C 128.851562 8.699219 128.613281 8.191406 128.664062 8.191406 C 128.71875 8.191406 128.382812 7.753906 127.925781 7.242188 C 127.667969 6.949219 127.402344 6.707031 127.339844 6.707031 C 127.277344 6.707031 127.214844 6.679688 127.199219 6.644531 C 127.011719 6.214844 125.191406 5.910156 124 6.101562 M 179.738281 6.058594 C 179.714844 6.082031 179.484375 6.113281 179.230469 6.121094 C 178.976562 6.132812 178.691406 6.171875 178.597656 6.207031 C 178.503906 6.242188 178.125 6.335938 177.75 6.417969 C 177.378906 6.496094 177.039062 6.601562 176.992188 6.648438 C 176.933594 6.703125 176.945312 6.710938 177.023438 6.664062 C 177.097656 6.621094 177.125 6.628906 177.089844 6.683594 C 177.058594 6.734375 176.957031 6.792969 176.863281 6.816406 C 176.757812 6.84375 176.714844 6.828125 176.75 6.773438 C 176.808594 6.675781 176.808594 6.675781 176.25 6.953125 C 176.03125 7.0625 175.847656 7.183594 175.847656 7.226562 C 175.847656 7.269531 175.761719 7.300781 175.660156 7.304688 C 175.503906 7.304688 175.492188 7.320312 175.59375 7.386719 C 175.707031 7.460938 175.707031 7.46875 175.59375 7.480469 C 175.527344 7.484375 175.410156 7.496094 175.339844 7.503906 C 175.273438 7.507812 175.226562 7.570312 175.242188 7.640625 C 175.257812 7.710938 175.242188 7.742188 175.210938 7.707031 C 175.125 7.621094 174.820312 7.800781 174.878906 7.902344 C 174.90625 7.949219 174.898438 7.976562 174.859375 7.960938 C 174.824219 7.949219 174.65625 8.074219 174.488281 8.238281 C 174.125 8.597656 173.613281 9.253906 173.699219 9.253906 C 173.734375 9.253906 173.691406 9.332031 173.605469 9.425781 C 173.523438 9.519531 173.480469 9.59375 173.515625 9.59375 C 173.550781 9.59375 173.519531 9.652344 173.453125 9.71875 C 173.382812 9.789062 173.226562 10.121094 173.101562 10.460938 C 172.972656 10.800781 172.820312 11.195312 172.757812 11.335938 C 172.695312 11.480469 172.65625 11.671875 172.671875 11.761719 C 172.683594 11.855469 172.675781 11.96875 172.648438 12.015625 C 172.300781 12.601562 172.34375 15.9375 172.714844 17.355469 C 172.808594 17.726562 172.886719 18.042969 172.886719 18.0625 C 172.886719 18.078125 172.933594 18.066406 172.984375 18.035156 C 173.042969 18 173.0625 18.011719 173.03125 18.058594 C 172.742188 18.527344 174.042969 20.148438 175.128906 20.671875 C 175.972656 21.078125 177.96875 21.195312 178.324219 20.855469 C 178.382812 20.804688 178.523438 20.746094 178.640625 20.730469 C 178.757812 20.714844 178.910156 20.648438 178.984375 20.582031 C 179.058594 20.515625 179.144531 20.488281 179.175781 20.519531 C 179.207031 20.550781 179.230469 20.53125 179.230469 20.476562 C 179.230469 20.421875 179.289062 20.378906 179.359375 20.378906 C 179.429688 20.378906 179.484375 20.339844 179.484375 20.296875 C 179.484375 20.253906 179.5625 20.195312 179.65625 20.164062 C 179.75 20.136719 179.804688 20.074219 179.777344 20.03125 C 179.75 19.988281 179.789062 19.953125 179.863281 19.953125 C 179.933594 19.953125 179.992188 19.894531 179.992188 19.820312 C 179.992188 19.746094 180.023438 19.707031 180.058594 19.730469 C 180.128906 19.773438 180.808594 18.882812 180.78125 18.78125 C 180.773438 18.75 180.820312 18.691406 180.890625 18.652344 C 180.957031 18.613281 180.988281 18.546875 180.960938 18.503906 C 180.9375 18.460938 180.953125 18.425781 181 18.425781 C 181.085938 18.425781 181.410156 17.789062 181.585938 17.277344 C 181.648438 17.085938 181.671875 17.488281 181.679688 18.871094 L 181.683594 20.71875 L 186.335938 20.71875 L 186.335938 6.300781 L 185.851562 6.238281 C 184.96875 6.121094 179.820312 5.96875 179.738281 6.058594 M 197.480469 6.085938 C 197.304688 6.105469 197.164062 6.160156 197.164062 6.203125 C 197.164062 6.246094 197.132812 6.273438 197.097656 6.261719 C 196.886719 6.191406 195.777344 6.839844 195.863281 6.980469 C 195.898438 7.035156 195.882812 7.050781 195.824219 7.011719 C 195.769531 6.980469 195.585938 7.097656 195.390625 7.296875 C 195.207031 7.488281 195.074219 7.640625 195.097656 7.640625 C 195.121094 7.640625 195.046875 7.734375 194.933594 7.851562 C 194.816406 7.964844 194.699219 8.136719 194.667969 8.234375 C 194.640625 8.328125 194.578125 8.40625 194.535156 8.40625 C 194.492188 8.40625 194.457031 8.453125 194.457031 8.511719 C 194.453125 8.570312 194.378906 8.714844 194.289062 8.828125 C 194.195312 8.945312 194.121094 9.109375 194.121094 9.191406 C 194.121094 9.273438 194.085938 9.339844 194.046875 9.339844 C 194.003906 9.339844 193.914062 9.484375 193.84375 9.65625 L 193.710938 9.976562 L 193.703125 9.527344 C 193.699219 9.277344 193.667969 9.09375 193.632812 9.113281 C 193.597656 9.136719 193.566406 9.015625 193.5625 8.84375 C 193.539062 7.867188 193.507812 7.453125 193.425781 6.898438 L 193.335938 6.28125 L 191.066406 6.28125 C 188.664062 6.28125 188.503906 6.3125 188.75 6.714844 C 188.78125 6.765625 188.820312 6.964844 188.832031 7.160156 C 188.847656 7.355469 188.886719 7.878906 188.921875 8.320312 C 189.015625 9.492188 189.015625 9.238281 189.03125 18.53125 L 189.042969 27.085938 L 193.695312 27.085938 L 193.695312 21.054688 L 194.667969 21.054688 C 195.203125 21.054688 195.640625 21.023438 195.640625 20.988281 C 195.640625 20.949219 195.804688 20.929688 196 20.949219 C 196.324219 20.976562 198.152344 20.585938 198.261719 20.464844 C 198.285156 20.441406 198.382812 20.40625 198.476562 20.390625 C 198.742188 20.347656 199.617188 19.9375 199.617188 19.855469 C 199.617188 19.816406 199.664062 19.78125 199.722656 19.78125 C 199.902344 19.78125 201.394531 18.476562 201.394531 18.320312 C 201.394531 18.285156 201.46875 18.175781 201.566406 18.082031 C 201.660156 17.988281 201.710938 17.867188 201.679688 17.8125 C 201.644531 17.757812 201.660156 17.742188 201.71875 17.78125 C 201.773438 17.816406 201.816406 17.789062 201.816406 17.714844 C 201.816406 17.644531 201.855469 17.578125 201.90625 17.558594 C 201.953125 17.542969 202 17.449219 202.007812 17.347656 C 202.015625 17.246094 202.042969 17.179688 202.074219 17.195312 C 202.105469 17.214844 202.222656 16.972656 202.339844 16.660156 C 202.691406 15.714844 202.761719 15.457031 202.695312 15.355469 C 202.660156 15.296875 202.671875 15.28125 202.726562 15.3125 C 202.78125 15.347656 202.816406 15.308594 202.816406 15.222656 C 202.808594 15.042969 202.90625 14.519531 202.960938 14.425781 C 202.984375 14.390625 202.953125 14.34375 202.894531 14.320312 C 202.808594 14.285156 202.808594 14.277344 202.894531 14.269531 C 203.027344 14.261719 203.039062 11 202.910156 10.484375 C 202.859375 10.300781 202.8125 10.050781 202.796875 9.933594 C 202.785156 9.816406 202.765625 9.671875 202.757812 9.609375 C 202.753906 9.550781 202.707031 9.523438 202.664062 9.550781 C 202.613281 9.582031 202.601562 9.546875 202.628906 9.46875 C 202.65625 9.398438 202.636719 9.285156 202.585938 9.226562 C 202.535156 9.164062 202.515625 9.089844 202.546875 9.058594 C 202.574219 9.03125 202.535156 8.945312 202.460938 8.871094 C 202.382812 8.792969 202.339844 8.699219 202.363281 8.664062 C 202.4375 8.542969 201.777344 7.472656 201.628906 7.472656 C 201.585938 7.472656 201.574219 7.433594 201.605469 7.386719 C 201.632812 7.339844 201.617188 7.300781 201.566406 7.300781 C 201.515625 7.300781 201.390625 7.203125 201.285156 7.082031 C 201 6.746094 200.386719 6.347656 200.242188 6.402344 C 200.171875 6.429688 200.136719 6.417969 200.160156 6.378906 C 200.296875 6.15625 198.496094 5.960938 197.480469 6.085938 M 98.96875 11.3125 C 98.980469 15.949219 99.023438 17.097656 99.21875 17.574219 C 99.242188 17.632812 99.269531 17.835938 99.285156 18.070312 C 99.296875 18.191406 99.335938 18.242188 99.398438 18.203125 C 99.457031 18.167969 99.472656 18.179688 99.441406 18.234375 C 99.367188 18.351562 99.53125 18.742188 99.761719 19.011719 C 99.871094 19.140625 99.886719 19.191406 99.808594 19.152344 C 99.730469 19.113281 99.738281 19.136719 99.828125 19.210938 C 99.910156 19.277344 99.949219 19.359375 99.917969 19.386719 C 99.890625 19.417969 99.914062 19.445312 99.976562 19.445312 C 100.039062 19.445312 100.066406 19.46875 100.035156 19.5 C 100.003906 19.527344 100.101562 19.644531 100.25 19.753906 C 100.398438 19.863281 100.480469 19.953125 100.4375 19.953125 C 100.167969 19.957031 101.152344 20.617188 101.539062 20.691406 C 101.632812 20.707031 101.800781 20.785156 101.917969 20.859375 C 102.265625 21.089844 104.292969 21.066406 104.882812 20.824219 C 105.507812 20.570312 105.644531 20.503906 105.644531 20.449219 C 105.644531 20.421875 105.738281 20.371094 105.855469 20.34375 C 105.96875 20.3125 106.101562 20.214844 106.152344 20.121094 C 106.203125 20.027344 106.308594 19.953125 106.386719 19.953125 C 106.511719 19.949219 106.515625 19.9375 106.40625 19.867188 C 106.335938 19.824219 106.320312 19.785156 106.371094 19.785156 C 106.523438 19.78125 106.996094 19.308594 106.996094 19.160156 C 106.996094 19.082031 107.054688 19.019531 107.125 19.019531 C 107.207031 19.019531 107.253906 18.933594 107.257812 18.785156 C 107.261719 18.65625 107.285156 18.601562 107.308594 18.664062 C 107.34375 18.746094 107.390625 18.71875 107.46875 18.582031 C 107.613281 18.328125 107.777344 17.984375 107.808594 17.871094 C 107.820312 17.824219 107.90625 17.636719 108.003906 17.449219 L 108.175781 17.109375 L 108.183594 20.71875 L 112.835938 20.71875 L 112.835938 6.28125 L 108.207031 6.28125 L 108.144531 7.789062 C 108.109375 8.617188 108.066406 9.675781 108.046875 10.136719 C 108.027344 10.601562 107.992188 11.078125 107.964844 11.199219 C 107.941406 11.320312 107.902344 11.660156 107.886719 11.953125 C 107.867188 12.246094 107.832031 12.515625 107.808594 12.554688 C 107.78125 12.597656 107.738281 12.835938 107.710938 13.085938 C 107.683594 13.335938 107.605469 13.707031 107.539062 13.90625 C 107.472656 14.105469 107.421875 14.332031 107.421875 14.410156 C 107.421875 14.621094 107.011719 15.796875 106.820312 16.132812 C 106.78125 16.203125 106.6875 16.378906 106.613281 16.527344 C 106.539062 16.675781 106.421875 16.820312 106.355469 16.84375 C 106.289062 16.871094 106.238281 16.953125 106.238281 17.027344 C 106.238281 17.101562 106.199219 17.136719 106.152344 17.109375 C 106.105469 17.078125 106.066406 17.09375 106.066406 17.140625 C 106.066406 17.1875 105.992188 17.25 105.898438 17.277344 C 105.804688 17.308594 105.671875 17.390625 105.601562 17.460938 C 105.53125 17.53125 105.476562 17.546875 105.476562 17.496094 C 105.476562 17.445312 105.296875 17.40625 105.058594 17.40625 C 104.828125 17.40625 104.613281 17.363281 104.582031 17.316406 C 104.554688 17.265625 104.472656 17.246094 104.410156 17.269531 C 104.34375 17.292969 104.292969 17.265625 104.292969 17.203125 C 104.292969 17.140625 104.214844 17.023438 104.121094 16.9375 C 104.027344 16.855469 103.96875 16.765625 103.992188 16.742188 C 104.011719 16.722656 103.988281 16.625 103.933594 16.523438 C 103.878906 16.425781 103.84375 16.308594 103.855469 16.269531 C 103.867188 16.226562 103.851562 16.128906 103.816406 16.054688 C 103.714844 15.8125 103.710938 15.625 103.707031 10.929688 L 103.699219 6.28125 L 98.957031 6.28125 L 98.96875 11.3125 M 146.542969 6.363281 C 146.515625 6.40625 146.554688 6.632812 146.628906 6.863281 C 146.703125 7.089844 146.773438 7.339844 146.785156 7.414062 C 146.792969 7.488281 146.828125 7.578125 146.863281 7.609375 C 146.894531 7.644531 146.921875 7.789062 146.921875 7.9375 C 146.921875 8.085938 146.949219 8.234375 146.980469 8.269531 C 147.011719 8.300781 147.054688 8.429688 147.070312 8.554688 C 147.085938 8.683594 147.128906 8.804688 147.160156 8.828125 C 147.191406 8.851562 147.226562 8.929688 147.234375 9 C 147.28125 9.332031 147.433594 9.957031 147.484375 10.042969 C 147.519531 10.09375 147.554688 10.242188 147.570312 10.367188 C 147.582031 10.496094 147.648438 10.765625 147.714844 10.964844 C 147.78125 11.167969 147.882812 11.535156 147.941406 11.78125 C 148.003906 12.027344 148.085938 12.226562 148.125 12.226562 C 148.167969 12.226562 148.175781 12.265625 148.148438 12.3125 C 148.117188 12.359375 148.140625 12.542969 148.199219 12.714844 C 148.261719 12.890625 148.300781 13.066406 148.289062 13.109375 C 148.277344 13.152344 148.292969 13.246094 148.324219 13.320312 C 148.359375 13.398438 148.394531 13.507812 148.40625 13.566406 C 148.445312 13.757812 148.703125 14.640625 148.796875 14.902344 C 148.84375 15.042969 148.898438 15.257812 148.910156 15.378906 C 148.933594 15.59375 149.058594 16.042969 149.214844 16.453125 C 149.257812 16.5625 149.289062 16.726562 149.289062 16.820312 C 149.289062 16.933594 149.324219 16.96875 149.394531 16.925781 C 149.480469 16.878906 149.480469 16.890625 149.398438 16.992188 C 149.335938 17.066406 149.324219 17.152344 149.367188 17.199219 C 149.410156 17.242188 149.46875 17.425781 149.496094 17.601562 C 149.523438 17.78125 149.582031 18 149.628906 18.085938 C 149.675781 18.171875 149.710938 18.339844 149.710938 18.457031 C 149.710938 18.574219 149.75 18.691406 149.796875 18.722656 C 149.84375 18.75 149.882812 18.886719 149.882812 19.023438 C 149.882812 19.160156 149.910156 19.273438 149.945312 19.273438 C 149.980469 19.273438 150.015625 19.386719 150.027344 19.527344 C 150.035156 19.667969 150.101562 19.957031 150.175781 20.167969 C 150.246094 20.378906 150.304688 20.625 150.304688 20.710938 C 150.304688 20.796875 150.363281 20.890625 150.4375 20.921875 C 150.683594 21.015625 154.027344 20.980469 154.027344 20.882812 C 154.027344 20.832031 154.066406 20.816406 154.113281 20.84375 C 154.226562 20.914062 155.132812 20.71875 155.296875 20.589844 C 155.449219 20.464844 155.734375 20.34375 155.824219 20.363281 C 155.863281 20.371094 155.914062 20.320312 155.941406 20.25 C 155.96875 20.179688 156.027344 20.121094 156.074219 20.121094 C 156.40625 20.121094 157.269531 18.78125 157.386719 18.085938 C 157.40625 17.972656 157.453125 17.835938 157.488281 17.789062 C 157.527344 17.742188 157.585938 17.570312 157.621094 17.40625 C 157.65625 17.242188 157.71875 17.066406 157.761719 17.011719 C 157.804688 16.957031 157.820312 16.8125 157.796875 16.691406 C 157.777344 16.5625 157.792969 16.488281 157.835938 16.515625 C 157.882812 16.542969 157.921875 16.515625 157.929688 16.457031 C 157.960938 16.132812 157.992188 15.984375 158.074219 15.769531 C 158.125 15.644531 158.148438 15.539062 158.128906 15.539062 C 158.109375 15.539062 158.152344 15.375 158.222656 15.175781 C 158.355469 14.804688 158.441406 14.472656 158.449219 14.285156 C 158.449219 14.226562 158.488281 14.179688 158.535156 14.179688 C 158.578125 14.179688 158.597656 14.089844 158.574219 13.984375 C 158.554688 13.875 158.589844 13.742188 158.652344 13.683594 C 158.710938 13.625 158.761719 13.464844 158.761719 13.324219 C 158.761719 13.183594 158.820312 12.953125 158.890625 12.816406 C 158.960938 12.679688 159.019531 12.546875 159.019531 12.523438 C 159.007812 12.296875 159.027344 12.226562 159.101562 12.226562 C 159.148438 12.226562 159.1875 12.304688 159.1875 12.394531 C 159.1875 12.488281 159.214844 12.566406 159.25 12.566406 C 159.285156 12.566406 159.320312 12.703125 159.328125 12.875 C 159.335938 13.042969 159.371094 13.242188 159.40625 13.320312 C 159.4375 13.394531 159.480469 13.53125 159.496094 13.621094 C 159.511719 13.710938 159.566406 13.828125 159.609375 13.882812 C 159.65625 13.9375 159.675781 14 159.65625 14.019531 C 159.636719 14.039062 159.695312 14.320312 159.789062 14.648438 C 159.878906 14.972656 159.960938 15.296875 159.964844 15.367188 C 159.96875 15.4375 159.996094 15.535156 160.03125 15.578125 C 160.09375 15.667969 160.210938 16.070312 160.242188 16.300781 C 160.265625 16.472656 160.613281 17.730469 160.710938 18 C 160.753906 18.117188 160.804688 18.316406 160.828125 18.445312 C 160.847656 18.570312 160.894531 18.722656 160.925781 18.777344 C 160.960938 18.832031 161 18.957031 161.011719 19.054688 C 161.0625 19.386719 161.3125 20.25 161.386719 20.324219 C 161.425781 20.363281 161.4375 20.453125 161.410156 20.515625 C 161.386719 20.582031 161.40625 20.683594 161.460938 20.746094 C 161.511719 20.808594 161.523438 20.886719 161.492188 20.921875 C 161.414062 21 165.222656 20.9375 165.570312 20.855469 C 166.136719 20.726562 166.714844 20.519531 166.714844 20.449219 C 166.714844 20.410156 166.769531 20.378906 166.839844 20.378906 C 166.910156 20.378906 166.96875 20.339844 166.96875 20.296875 C 166.96875 20.253906 167.070312 20.164062 167.199219 20.101562 C 167.328125 20.035156 167.421875 19.9375 167.410156 19.878906 C 167.398438 19.820312 167.421875 19.792969 167.464844 19.820312 C 167.550781 19.871094 168.035156 19.296875 168.003906 19.179688 C 167.992188 19.136719 168.015625 19.105469 168.058594 19.105469 C 168.140625 19.105469 168.398438 18.597656 168.449219 18.34375 C 168.464844 18.253906 168.519531 18.101562 168.574219 18.003906 C 168.625 17.90625 168.640625 17.785156 168.609375 17.730469 C 168.574219 17.675781 168.585938 17.65625 168.636719 17.6875 C 168.714844 17.738281 168.84375 17.363281 168.875 16.980469 C 168.882812 16.910156 168.933594 16.742188 168.988281 16.609375 C 169.042969 16.472656 169.074219 16.320312 169.054688 16.269531 C 169.035156 16.214844 169.078125 16.058594 169.148438 15.917969 C 169.285156 15.652344 169.414062 15.214844 169.464844 14.859375 C 169.480469 14.742188 169.53125 14.53125 169.578125 14.390625 C 169.730469 13.9375 170.082031 12.699219 170.136719 12.4375 C 170.296875 11.652344 170.355469 11.429688 170.421875 11.34375 C 170.460938 11.292969 170.539062 11.019531 170.601562 10.742188 C 170.660156 10.460938 170.730469 10.175781 170.753906 10.105469 C 170.777344 10.035156 170.8125 9.882812 170.832031 9.765625 C 170.847656 9.648438 170.898438 9.476562 170.9375 9.382812 C 171.074219 9.082031 171.546875 7.28125 171.566406 6.992188 C 171.570312 6.890625 171.601562 6.824219 171.632812 6.84375 C 171.695312 6.882812 171.789062 6.4375 171.734375 6.347656 C 171.683594 6.261719 167.046875 6.261719 167.066406 6.347656 C 167.074219 6.382812 167.058594 6.46875 167.03125 6.539062 C 167.003906 6.609375 166.960938 6.78125 166.9375 6.917969 C 166.894531 7.195312 166.851562 7.355469 166.777344 7.554688 C 166.75 7.625 166.648438 8.027344 166.546875 8.449219 C 166.449219 8.867188 166.332031 9.355469 166.285156 9.53125 C 166.238281 9.707031 166.226562 9.894531 166.257812 9.949219 C 166.289062 10 166.28125 10.023438 166.234375 9.992188 C 166.1875 9.964844 166.101562 10.1875 166.035156 10.511719 C 165.894531 11.203125 165.914062 11.121094 165.808594 11.378906 C 165.722656 11.589844 165.589844 12.292969 165.578125 12.609375 C 165.574219 12.703125 165.542969 12.800781 165.507812 12.824219 C 165.472656 12.851562 165.410156 13.042969 165.363281 13.25 C 165.320312 13.457031 165.203125 13.953125 165.101562 14.347656 C 165.003906 14.746094 164.886719 15.203125 164.847656 15.367188 C 164.609375 16.339844 164.535156 16.449219 164.457031 15.949219 C 164.433594 15.792969 164.375 15.617188 164.324219 15.558594 C 164.277344 15.496094 164.257812 15.425781 164.285156 15.398438 C 164.3125 15.371094 164.300781 15.257812 164.257812 15.144531 C 164.214844 15.03125 164.164062 14.855469 164.144531 14.75 C 164.125 14.644531 164.058594 14.445312 164.003906 14.304688 C 163.945312 14.167969 163.890625 13.976562 163.878906 13.882812 C 163.832031 13.542969 163.535156 12.472656 163.496094 12.511719 C 163.476562 12.535156 163.449219 12.46875 163.441406 12.367188 C 163.414062 12.050781 163.109375 11.035156 163.054688 11.085938 C 163.027344 11.117188 163.015625 11.066406 163.03125 10.980469 C 163.042969 10.894531 163.03125 10.789062 163.007812 10.742188 C 162.980469 10.695312 162.949219 10.601562 162.9375 10.53125 C 162.878906 10.164062 162.683594 9.507812 162.648438 9.542969 C 162.625 9.566406 162.597656 9.519531 162.589844 9.441406 C 162.535156 8.859375 162.382812 8.320312 162.292969 8.378906 C 162.238281 8.410156 162.230469 8.390625 162.269531 8.324219 C 162.304688 8.269531 162.296875 8.136719 162.246094 8.035156 C 162.195312 7.9375 162.09375 7.558594 162.015625 7.195312 C 161.9375 6.832031 161.839844 6.515625 161.796875 6.488281 C 161.753906 6.460938 161.742188 6.40625 161.769531 6.363281 C 161.800781 6.3125 160.777344 6.28125 159.152344 6.28125 L 156.484375 6.28125 L 156.355469 6.535156 C 156.28125 6.675781 156.230469 6.816406 156.242188 6.851562 C 156.25 6.890625 156.210938 7.117188 156.152344 7.359375 C 156.089844 7.605469 156.066406 7.84375 156.097656 7.890625 C 156.125 7.941406 156.105469 7.980469 156.050781 7.980469 C 155.996094 7.980469 155.976562 8.039062 156.003906 8.113281 C 156.03125 8.1875 156.019531 8.222656 155.96875 8.191406 C 155.890625 8.144531 155.851562 8.292969 155.867188 8.570312 C 155.871094 8.640625 155.820312 8.796875 155.757812 8.917969 C 155.695312 9.042969 155.648438 9.21875 155.652344 9.304688 C 155.660156 9.394531 155.613281 9.613281 155.554688 9.789062 C 155.496094 9.964844 155.46875 10.167969 155.496094 10.238281 C 155.523438 10.308594 155.515625 10.347656 155.476562 10.324219 C 155.394531 10.273438 155.195312 10.863281 155.261719 10.964844 C 155.28125 11 155.242188 11.152344 155.164062 11.296875 C 155.089844 11.445312 155.050781 11.617188 155.078125 11.6875 C 155.101562 11.757812 155.066406 11.925781 154.992188 12.066406 C 154.921875 12.207031 154.851562 12.445312 154.839844 12.601562 C 154.824219 12.753906 154.785156 12.925781 154.753906 12.976562 C 154.71875 13.03125 154.71875 13.121094 154.753906 13.171875 C 154.789062 13.230469 154.777344 13.25 154.726562 13.214844 C 154.671875 13.183594 154.617188 13.289062 154.585938 13.480469 C 154.558594 13.65625 154.511719 13.925781 154.488281 14.085938 C 154.464844 14.242188 154.410156 14.433594 154.371094 14.507812 C 154.308594 14.625 154.160156 15.199219 153.96875 16.046875 C 153.910156 16.308594 153.683594 15.726562 153.519531 14.902344 C 153.464844 14.621094 153.378906 14.296875 153.328125 14.179688 C 153.277344 14.0625 153.230469 13.828125 153.21875 13.660156 C 153.210938 13.492188 153.175781 13.308594 153.144531 13.257812 C 153.054688 13.109375 152.820312 12.203125 152.828125 12.027344 C 152.828125 11.941406 152.792969 11.769531 152.742188 11.644531 C 152.691406 11.523438 152.640625 11.34375 152.632812 11.25 C 152.605469 11.019531 152.417969 10.292969 152.304688 9.976562 C 152.25 9.835938 152.21875 9.695312 152.230469 9.660156 C 152.25 9.59375 152.113281 8.988281 151.847656 7.980469 C 151.753906 7.628906 151.628906 7.109375 151.566406 6.816406 L 151.457031 6.292969 L 149.027344 6.285156 C 147.511719 6.28125 146.574219 6.308594 146.542969 6.363281 M 131.164062 7.027344 C 131.140625 7.109375 131.125 7.039062 131.125 6.878906 C 131.125 6.714844 131.140625 6.648438 131.164062 6.730469 C 131.183594 6.8125 131.183594 6.945312 131.164062 7.027344 M 37.96875 9.878906 C 38.199219 9.996094 38.410156 10.066406 38.4375 10.039062 C 38.464844 10.011719 38.484375 10.035156 38.484375 10.089844 C 38.484375 10.144531 38.597656 10.308594 38.738281 10.457031 C 39.003906 10.734375 39.246094 11.15625 39.246094 11.335938 C 39.246094 11.394531 39.300781 11.488281 39.367188 11.542969 C 39.433594 11.597656 39.46875 11.699219 39.445312 11.765625 C 39.417969 11.832031 39.425781 11.953125 39.460938 12.035156 C 39.675781 12.546875 39.6875 14.453125 39.476562 15.027344 C 39.4375 15.132812 39.355469 15.449219 39.292969 15.707031 C 39.289062 15.730469 39.234375 15.835938 39.175781 15.941406 C 39.117188 16.046875 39.089844 16.132812 39.117188 16.132812 C 39.140625 16.132812 39.09375 16.203125 39.015625 16.289062 C 38.933594 16.375 38.808594 16.527344 38.738281 16.628906 C 38.585938 16.855469 38.03125 17.234375 37.851562 17.234375 C 37.78125 17.234375 37.722656 17.269531 37.722656 17.304688 C 37.722656 17.449219 35.976562 17.46875 35.839844 17.328125 C 35.785156 17.277344 35.691406 17.234375 35.628906 17.234375 C 35.566406 17.234375 35.390625 17.140625 35.238281 17.023438 C 35.085938 16.90625 34.9375 16.832031 34.914062 16.859375 C 34.886719 16.886719 34.835938 16.859375 34.800781 16.804688 C 34.757812 16.734375 34.773438 16.71875 34.855469 16.765625 C 34.921875 16.800781 34.871094 16.738281 34.742188 16.621094 C 34.613281 16.503906 34.511719 16.367188 34.511719 16.3125 C 34.511719 16.261719 34.46875 16.21875 34.421875 16.21875 C 34.371094 16.21875 34.355469 16.179688 34.382812 16.132812 C 34.410156 16.085938 34.394531 16.046875 34.347656 16.046875 C 34.296875 16.046875 34.257812 15.957031 34.257812 15.84375 C 34.257812 15.734375 34.199219 15.597656 34.128906 15.539062 C 34.0625 15.480469 34.027344 15.398438 34.050781 15.355469 C 34.078125 15.3125 34.050781 15.136719 33.996094 14.964844 C 33.929688 14.769531 33.898438 14.257812 33.910156 13.640625 C 33.921875 12.835938 33.90625 12.648438 33.816406 12.703125 C 33.734375 12.753906 33.726562 12.738281 33.796875 12.644531 C 33.84375 12.578125 33.9375 12.3125 34 12.058594 C 34.210938 11.183594 35.015625 9.875 35.21875 10.082031 C 35.25 10.109375 35.269531 10.089844 35.269531 10.039062 C 35.269531 9.988281 35.402344 9.898438 35.566406 9.835938 C 35.730469 9.777344 35.863281 9.710938 35.863281 9.683594 C 35.863281 9.523438 37.578125 9.683594 37.96875 9.878906 M 74.886719 9.714844 C 75.125 9.761719 75.128906 9.777344 75.070312 10.125 C 75.039062 10.324219 74.996094 10.636719 74.972656 10.824219 C 74.953125 11.011719 74.914062 11.222656 74.886719 11.292969 C 74.859375 11.363281 74.820312 11.582031 74.800781 11.78125 C 74.78125 11.980469 74.726562 12.25 74.675781 12.378906 C 74.628906 12.503906 74.570312 12.757812 74.546875 12.941406 C 74.527344 13.125 74.472656 13.339844 74.433594 13.417969 C 74.390625 13.496094 74.359375 13.632812 74.363281 13.71875 C 74.363281 13.808594 74.285156 14.09375 74.183594 14.347656 C 73.921875 15.007812 73.847656 15.261719 73.90625 15.320312 C 73.933594 15.347656 73.90625 15.367188 73.847656 15.367188 C 73.785156 15.367188 73.757812 15.421875 73.785156 15.488281 C 73.808594 15.554688 73.777344 15.65625 73.710938 15.710938 C 73.640625 15.765625 73.585938 15.851562 73.585938 15.898438 C 73.585938 16.015625 73.007812 16.804688 72.722656 17.078125 C 72.59375 17.203125 72.488281 17.289062 72.488281 17.265625 C 72.488281 17.246094 72.410156 17.273438 72.3125 17.324219 C 71.980469 17.503906 71.316406 17.460938 71.167969 17.25 C 71.097656 17.148438 70.996094 17.089844 70.945312 17.121094 C 70.894531 17.152344 70.878906 17.140625 70.90625 17.09375 C 70.9375 17.046875 70.894531 16.933594 70.816406 16.84375 C 70.652344 16.664062 70.335938 16.039062 70.355469 15.945312 C 70.363281 15.910156 70.328125 15.777344 70.273438 15.648438 C 70.222656 15.515625 70.183594 15.378906 70.195312 15.335938 C 70.203125 15.296875 70.152344 14.96875 70.078125 14.609375 C 69.949219 13.980469 69.898438 12.539062 69.988281 12.183594 C 70.179688 11.453125 70.277344 11.1875 70.496094 10.859375 C 70.628906 10.65625 70.734375 10.472656 70.722656 10.453125 C 70.679688 10.386719 71.648438 9.894531 72.113281 9.746094 C 72.457031 9.636719 74.382812 9.617188 74.886719 9.714844 M 181.914062 9.726562 C 182.160156 9.765625 182.179688 9.789062 182.109375 9.96875 C 182.066406 10.082031 182.035156 10.28125 182.039062 10.414062 C 182.042969 10.546875 181.984375 10.886719 181.914062 11.164062 C 181.789062 11.65625 181.65625 12.382812 181.640625 12.652344 C 181.636719 12.722656 181.589844 12.914062 181.535156 13.074219 C 181.480469 13.238281 181.421875 13.46875 181.40625 13.585938 C 181.386719 13.703125 181.328125 13.90625 181.277344 14.035156 C 181.222656 14.167969 181.175781 14.347656 181.175781 14.433594 C 181.175781 14.523438 181.144531 14.613281 181.101562 14.640625 C 181.0625 14.664062 181.03125 14.785156 181.03125 14.910156 C 181.03125 15.03125 180.976562 15.164062 180.914062 15.203125 C 180.851562 15.242188 180.828125 15.300781 180.859375 15.332031 C 180.890625 15.363281 180.851562 15.492188 180.765625 15.613281 C 180.683594 15.734375 180.554688 15.972656 180.476562 16.136719 C 180.402344 16.300781 180.261719 16.507812 180.167969 16.59375 C 180.074219 16.679688 180.015625 16.777344 180.035156 16.808594 C 180.054688 16.84375 179.976562 16.914062 179.859375 16.96875 C 179.730469 17.027344 179.667969 17.105469 179.707031 17.164062 C 179.742188 17.226562 179.730469 17.238281 179.667969 17.203125 C 179.613281 17.167969 179.570312 17.1875 179.570312 17.246094 C 179.570312 17.300781 179.546875 17.324219 179.515625 17.296875 C 179.488281 17.265625 179.382812 17.285156 179.285156 17.335938 C 179.078125 17.449219 178.402344 17.4375 178.257812 17.320312 C 178.203125 17.273438 178.128906 17.265625 178.089844 17.300781 C 178.050781 17.335938 178.046875 17.320312 178.078125 17.265625 C 178.109375 17.207031 178.03125 17.082031 177.902344 16.980469 C 177.773438 16.878906 177.664062 16.761719 177.65625 16.71875 C 177.652344 16.675781 177.640625 16.632812 177.628906 16.621094 C 177.621094 16.609375 177.601562 16.539062 177.585938 16.460938 C 177.570312 16.386719 177.5 16.195312 177.421875 16.035156 C 177.347656 15.878906 177.25 15.546875 177.203125 15.296875 C 177.15625 15.046875 177.09375 14.804688 177.066406 14.757812 C 176.945312 14.566406 177.019531 11.988281 177.15625 11.585938 C 177.703125 9.972656 179.382812 9.316406 181.914062 9.726562 M 197.445312 9.875 C 197.496094 9.84375 197.507812 9.875 197.476562 9.960938 C 197.445312 10.039062 197.449219 10.105469 197.484375 10.105469 C 197.535156 10.105469 197.859375 10.585938 197.878906 10.699219 C 197.886719 10.722656 197.9375 10.828125 197.996094 10.929688 C 198.050781 11.035156 198.082031 11.121094 198.058594 11.121094 C 198.03125 11.121094 198.054688 11.226562 198.105469 11.355469 C 198.5 12.355469 198.566406 15.28125 198.199219 15.722656 C 198.097656 15.847656 197.9375 16.230469 197.957031 16.304688 C 197.980469 16.402344 197.527344 16.777344 197.140625 16.980469 C 196.921875 17.097656 196.742188 17.210938 196.742188 17.234375 C 196.742188 17.300781 196.445312 17.328125 195.175781 17.375 C 193.703125 17.425781 193.246094 17.371094 193.3125 17.152344 C 193.378906 16.953125 193.449219 16.511719 193.488281 16.109375 C 193.503906 15.933594 193.539062 15.757812 193.5625 15.714844 C 193.601562 15.652344 193.699219 15.113281 193.828125 14.222656 C 193.847656 14.082031 193.902344 13.871094 193.945312 13.753906 C 193.992188 13.636719 194.046875 13.441406 194.066406 13.316406 C 194.085938 13.191406 194.144531 13.011719 194.195312 12.917969 C 194.246094 12.824219 194.289062 12.652344 194.289062 12.535156 C 194.289062 12.417969 194.324219 12.296875 194.371094 12.269531 C 194.417969 12.238281 194.457031 12.160156 194.457031 12.09375 C 194.457031 12.027344 194.546875 11.785156 194.652344 11.5625 C 194.761719 11.335938 194.84375 11.082031 194.828125 11 C 194.816406 10.917969 194.828125 10.875 194.855469 10.898438 C 194.882812 10.925781 195.011719 10.804688 195.144531 10.632812 C 195.753906 9.839844 195.894531 9.746094 196.570312 9.683594 C 196.9375 9.648438 197.070312 9.667969 197.199219 9.78125 C 197.285156 9.863281 197.398438 9.902344 197.445312 9.875 M 123.699219 9.777344 C 123.816406 9.832031 123.914062 9.925781 123.914062 9.988281 C 123.914062 10.050781 123.949219 10.105469 123.992188 10.105469 C 124.140625 10.105469 124.660156 11.339844 124.726562 11.84375 C 124.746094 11.984375 124.785156 12.15625 124.8125 12.226562 C 124.941406 12.539062 124.992188 14.671875 124.878906 15.113281 C 124.851562 15.230469 124.824219 15.390625 124.816406 15.46875 C 124.8125 15.546875 124.777344 15.589844 124.742188 15.570312 C 124.707031 15.546875 124.675781 15.582031 124.675781 15.648438 C 124.675781 15.910156 124.027344 16.890625 123.851562 16.894531 C 123.792969 16.894531 123.746094 16.929688 123.746094 16.96875 C 123.746094 17.007812 123.699219 17.039062 123.640625 17.042969 C 123.582031 17.046875 123.328125 17.128906 123.074219 17.226562 C 122.121094 17.589844 119.710938 17.480469 119.8125 17.078125 C 119.84375 16.953125 119.882812 16.695312 119.894531 16.5 C 119.90625 16.308594 119.941406 16.109375 119.972656 16.0625 C 120.023438 15.980469 120.132812 15.242188 120.144531 14.886719 C 120.148438 14.789062 120.179688 14.722656 120.214844 14.742188 C 120.25 14.765625 120.285156 14.695312 120.292969 14.585938 C 120.300781 14.480469 120.3125 14.332031 120.320312 14.265625 C 120.335938 14.132812 120.488281 13.542969 120.613281 13.132812 C 120.65625 13.003906 120.675781 12.820312 120.65625 12.730469 C 120.640625 12.636719 120.652344 12.578125 120.691406 12.601562 C 120.726562 12.625 120.84375 12.371094 120.949219 12.039062 C 121.054688 11.707031 121.210938 11.316406 121.300781 11.171875 C 121.386719 11.027344 121.519531 10.796875 121.597656 10.660156 C 121.675781 10.519531 121.828125 10.335938 121.9375 10.25 C 122.050781 10.160156 122.113281 10.046875 122.082031 9.992188 C 122.050781 9.9375 122.054688 9.917969 122.089844 9.949219 C 122.125 9.980469 122.273438 9.933594 122.421875 9.84375 C 122.726562 9.65625 123.363281 9.625 123.699219 9.777344 M 176.921875 13.480469 C 176.902344 13.5625 176.882812 13.492188 176.882812 13.332031 C 176.882812 13.167969 176.902344 13.101562 176.921875 13.179688 C 176.945312 13.261719 176.945312 13.398438 176.921875 13.480469 "/>
<path style=" stroke:none;fill-rule:evenodd;fill:rgb(62.745098%,17.254902%,29.803922%);fill-opacity:1;" d="M 0.0546875 1.167969 C 0.0351562 1.203125 1.152344 1.230469 2.539062 1.230469 C 3.925781 1.230469 5.039062 1.203125 5.019531 1.167969 C 4.96875 1.085938 0.105469 1.085938 0.0546875 1.167969 M 13.171875 1.167969 C 13.835938 1.179688 14.921875 1.179688 15.585938 1.167969 C 16.246094 1.152344 15.707031 1.140625 14.378906 1.140625 C 13.054688 1.140625 12.511719 1.152344 13.171875 1.167969 M 24.507812 1.167969 C 25.171875 1.179688 26.253906 1.179688 26.917969 1.167969 C 27.582031 1.152344 27.039062 1.140625 25.714844 1.140625 C 24.386719 1.140625 23.84375 1.152344 24.507812 1.167969 M 91.496094 4.902344 C 91.644531 4.917969 91.914062 4.921875 92.089844 4.902344 C 92.261719 4.882812 92.140625 4.867188 91.816406 4.867188 C 91.488281 4.867188 91.347656 4.882812 91.496094 4.902344 M 139.207031 4.902344 C 139.402344 4.917969 139.707031 4.917969 139.882812 4.902344 C 140.054688 4.882812 139.890625 4.867188 139.519531 4.867188 C 139.148438 4.871094 139.007812 4.882812 139.207031 4.902344 M 131.125 6.878906 C 131.125 7.039062 131.140625 7.109375 131.164062 7.027344 C 131.183594 6.945312 131.183594 6.8125 131.164062 6.730469 C 131.140625 6.648438 131.125 6.714844 131.125 6.878906 M 176.773438 6.757812 C 176.707031 6.839844 176.726562 6.851562 176.859375 6.816406 C 177.074219 6.761719 177.15625 6.652344 176.984375 6.652344 C 176.917969 6.652344 176.820312 6.699219 176.773438 6.757812 M 56.566406 10.671875 C 56.671875 10.695312 56.839844 10.695312 56.945312 10.671875 C 57.050781 10.652344 56.964844 10.636719 56.753906 10.636719 C 56.546875 10.636719 56.460938 10.652344 56.566406 10.671875 M 46.390625 16.132812 C 46.390625 18.675781 46.402344 19.71875 46.414062 18.445312 C 46.429688 17.171875 46.429688 15.089844 46.414062 13.820312 C 46.402344 12.546875 46.390625 13.585938 46.390625 16.132812 M 176.882812 13.332031 C 176.882812 13.492188 176.902344 13.5625 176.921875 13.480469 C 176.945312 13.398438 176.945312 13.261719 176.921875 13.179688 C 176.902344 13.101562 176.882812 13.167969 176.882812 13.332031 "/>
<path style=" stroke:none;fill-rule:evenodd;fill:rgb(62.745098%,17.254902%,29.803922%);fill-opacity:1;" d="M 0.0546875 1.167969 C 0.0351562 1.203125 1.152344 1.230469 2.539062 1.230469 C 3.925781 1.230469 5.039062 1.203125 5.019531 1.167969 C 4.96875 1.085938 0.105469 1.085938 0.0546875 1.167969 M 13.171875 1.167969 C 13.835938 1.179688 14.921875 1.179688 15.585938 1.167969 C 16.246094 1.152344 15.707031 1.140625 14.378906 1.140625 C 13.054688 1.140625 12.511719 1.152344 13.171875 1.167969 M 24.507812 1.167969 C 25.171875 1.179688 26.253906 1.179688 26.917969 1.167969 C 27.582031 1.152344 27.039062 1.140625 25.714844 1.140625 C 24.386719 1.140625 23.84375 1.152344 24.507812 1.167969 M 91.496094 4.902344 C 91.644531 4.917969 91.914062 4.921875 92.089844 4.902344 C 92.261719 4.882812 92.140625 4.867188 91.816406 4.867188 C 91.488281 4.867188 91.347656 4.882812 91.496094 4.902344 M 139.207031 4.902344 C 139.402344 4.917969 139.707031 4.917969 139.882812 4.902344 C 140.054688 4.882812 139.890625 4.867188 139.519531 4.867188 C 139.148438 4.871094 139.007812 4.882812 139.207031 4.902344 M 131.125 6.878906 C 131.125 7.039062 131.140625 7.109375 131.164062 7.027344 C 131.183594 6.945312 131.183594 6.8125 131.164062 6.730469 C 131.140625 6.648438 131.125 6.714844 131.125 6.878906 M 176.773438 6.757812 C 176.707031 6.839844 176.726562 6.851562 176.859375 6.816406 C 177.074219 6.761719 177.15625 6.652344 176.984375 6.652344 C 176.917969 6.652344 176.820312 6.699219 176.773438 6.757812 M 56.566406 10.671875 C 56.671875 10.695312 56.839844 10.695312 56.945312 10.671875 C 57.050781 10.652344 56.964844 10.636719 56.753906 10.636719 C 56.546875 10.636719 56.460938 10.652344 56.566406 10.671875 M 46.390625 16.132812 C 46.390625 18.675781 46.402344 19.71875 46.414062 18.445312 C 46.429688 17.171875 46.429688 15.089844 46.414062 13.820312 C 46.402344 12.546875 46.390625 13.585938 46.390625 16.132812 M 176.882812 13.332031 C 176.882812 13.492188 176.902344 13.5625 176.921875 13.480469 C 176.945312 13.398438 176.945312 13.261719 176.921875 13.179688 C 176.902344 13.101562 176.882812 13.167969 176.882812 13.332031 "/>
<path style=" stroke:none;fill-rule:evenodd;fill:rgb(62.745098%,17.254902%,29.803922%);fill-opacity:1;" d="M 0.0546875 1.167969 C 0.0351562 1.203125 1.152344 1.230469 2.539062 1.230469 C 3.925781 1.230469 5.039062 1.203125 5.019531 1.167969 C 4.96875 1.085938 0.105469 1.085938 0.0546875 1.167969 M 13.171875 1.167969 C 13.835938 1.179688 14.921875 1.179688 15.585938 1.167969 C 16.246094 1.152344 15.707031 1.140625 14.378906 1.140625 C 13.054688 1.140625 12.511719 1.152344 13.171875 1.167969 M 24.507812 1.167969 C 25.171875 1.179688 26.253906 1.179688 26.917969 1.167969 C 27.582031 1.152344 27.039062 1.140625 25.714844 1.140625 C 24.386719 1.140625 23.84375 1.152344 24.507812 1.167969 M 91.496094 4.902344 C 91.644531 4.917969 91.914062 4.921875 92.089844 4.902344 C 92.261719 4.882812 92.140625 4.867188 91.816406 4.867188 C 91.488281 4.867188 91.347656 4.882812 91.496094 4.902344 M 139.207031 4.902344 C 139.402344 4.917969 139.707031 4.917969 139.882812 4.902344 C 140.054688 4.882812 139.890625 4.867188 139.519531 4.867188 C 139.148438 4.871094 139.007812 4.882812 139.207031 4.902344 M 131.125 6.878906 C 131.125 7.039062 131.140625 7.109375 131.164062 7.027344 C 131.183594 6.945312 131.183594 6.8125 131.164062 6.730469 C 131.140625 6.648438 131.125 6.714844 131.125 6.878906 M 176.773438 6.757812 C 176.707031 6.839844 176.726562 6.851562 176.859375 6.816406 C 177.074219 6.761719 177.15625 6.652344 176.984375 6.652344 C 176.917969 6.652344 176.820312 6.699219 176.773438 6.757812 M 56.566406 10.671875 C 56.671875 10.695312 56.839844 10.695312 56.945312 10.671875 C 57.050781 10.652344 56.964844 10.636719 56.753906 10.636719 C 56.546875 10.636719 56.460938 10.652344 56.566406 10.671875 M 46.390625 16.132812 C 46.390625 18.675781 46.402344 19.71875 46.414062 18.445312 C 46.429688 17.171875 46.429688 15.089844 46.414062 13.820312 C 46.402344 12.546875 46.390625 13.585938 46.390625 16.132812 M 176.882812 13.332031 C 176.882812 13.492188 176.902344 13.5625 176.921875 13.480469 C 176.945312 13.398438 176.945312 13.261719 176.921875 13.179688 C 176.902344 13.101562 176.882812 13.167969 176.882812 13.332031 "/>
<path style=" stroke:none;fill-rule:evenodd;fill:rgb(62.745098%,17.254902%,29.803922%);fill-opacity:1;" d="M 0.0546875 1.167969 C 0.0351562 1.203125 1.152344 1.230469 2.539062 1.230469 C 3.925781 1.230469 5.039062 1.203125 5.019531 1.167969 C 4.96875 1.085938 0.105469 1.085938 0.0546875 1.167969 M 13.171875 1.167969 C 13.835938 1.179688 14.921875 1.179688 15.585938 1.167969 C 16.246094 1.152344 15.707031 1.140625 14.378906 1.140625 C 13.054688 1.140625 12.511719 1.152344 13.171875 1.167969 M 24.507812 1.167969 C 25.171875 1.179688 26.253906 1.179688 26.917969 1.167969 C 27.582031 1.152344 27.039062 1.140625 25.714844 1.140625 C 24.386719 1.140625 23.84375 1.152344 24.507812 1.167969 M 91.496094 4.902344 C 91.644531 4.917969 91.914062 4.921875 92.089844 4.902344 C 92.261719 4.882812 92.140625 4.867188 91.816406 4.867188 C 91.488281 4.867188 91.347656 4.882812 91.496094 4.902344 M 139.207031 4.902344 C 139.402344 4.917969 139.707031 4.917969 139.882812 4.902344 C 140.054688 4.882812 139.890625 4.867188 139.519531 4.867188 C 139.148438 4.871094 139.007812 4.882812 139.207031 4.902344 M 131.125 6.878906 C 131.125 7.039062 131.140625 7.109375 131.164062 7.027344 C 131.183594 6.945312 131.183594 6.8125 131.164062 6.730469 C 131.140625 6.648438 131.125 6.714844 131.125 6.878906 M 176.773438 6.757812 C 176.707031 6.839844 176.726562 6.851562 176.859375 6.816406 C 177.074219 6.761719 177.15625 6.652344 176.984375 6.652344 C 176.917969 6.652344 176.820312 6.699219 176.773438 6.757812 M 56.566406 10.671875 C 56.671875 10.695312 56.839844 10.695312 56.945312 10.671875 C 57.050781 10.652344 56.964844 10.636719 56.753906 10.636719 C 56.546875 10.636719 56.460938 10.652344 56.566406 10.671875 M 46.390625 16.132812 C 46.390625 18.675781 46.402344 19.71875 46.414062 18.445312 C 46.429688 17.171875 46.429688 15.089844 46.414062 13.820312 C 46.402344 12.546875 46.390625 13.585938 46.390625 16.132812 M 176.882812 13.332031 C 176.882812 13.492188 176.902344 13.5625 176.921875 13.480469 C 176.945312 13.398438 176.945312 13.261719 176.921875 13.179688 C 176.902344 13.101562 176.882812 13.167969 176.882812 13.332031 "/>
</g>
</svg>
